<svg width="181" height="51" viewBox="0 0 181 51" fill="none" xmlns="http://www.w3.org/2000/svg">
    <path d="M67.2048 6.08381C66.708 5.20387 65.5667 4.55835 64.5323 4.55835H54.9657C54.3443 4.55835 53.7852 4.7585 53.2884 5.15519C52.8736 5.48697 52.5745 5.91431 52.3911 6.43542C52.2878 6.72753 52.1774 7.01783 52.051 7.30092L46.4638 19.6993C46.4406 19.7895 46.316 19.7913 46.2911 19.6993L42.8084 6.68605C42.7871 6.60852 42.7657 6.53098 42.7372 6.45525C42.5271 5.87825 42.1977 5.40222 41.7526 5.02897C41.2754 4.63047 40.727 4.43213 40.1056 4.43213H31.7818C31.1604 4.43213 30.612 4.63228 30.1349 5.02897C29.6879 5.40402 29.3603 5.87825 29.1502 6.45525C29.1235 6.53098 29.1004 6.60852 29.079 6.68605L25.5964 19.6993C25.5732 19.7895 25.4468 19.7877 25.4237 19.6993L19.8365 7.30092C19.71 7.01783 19.5996 6.72753 19.4964 6.43542C19.313 5.91431 19.0139 5.48877 18.599 5.15519C18.1022 4.75669 17.5432 4.55835 16.9218 4.55835H7.35517C6.3207 4.55835 5.1794 5.20207 4.68264 6.08381C4.16808 6.90243 4.33188 8.20971 4.43871 8.7813C4.46898 8.94358 4.51349 9.10226 4.57047 9.25733L18.3907 46.1117C18.4138 46.173 18.4334 46.2361 18.453 46.2992C18.6275 46.8852 18.9604 47.3667 19.4519 47.7453C19.97 48.1438 20.5184 48.3422 21.0988 48.3422H29.1734C29.7948 48.3422 30.3539 48.1438 30.8506 47.7453C31.3474 47.3469 31.6803 46.833 31.8441 46.2037L35.795 32.3519C35.8129 32.2924 35.8752 32.2762 35.9197 32.2997V32.3519C35.925 32.3375 35.9339 32.3285 35.9428 32.3195C35.9517 32.3285 35.9606 32.3375 35.966 32.3519V32.2997C36.0123 32.2762 36.0746 32.2924 36.0924 32.3519L40.0433 46.2037C40.2089 46.833 40.5401 47.3469 41.0368 47.7453C41.5336 48.1438 42.0927 48.3422 42.7141 48.3422H50.7886C51.3673 48.3422 51.9157 48.1438 52.4356 47.7453C52.927 47.3685 53.2599 46.8852 53.4344 46.2992C53.454 46.2361 53.4736 46.173 53.4968 46.1117L67.317 9.25733C67.3757 9.10226 67.4185 8.94358 67.4487 8.7813C67.5538 8.21151 67.7194 6.90243 67.2048 6.08381Z" fill="white"/>
    <path d="M134.874 5.8802C135.164 6.3418 135.309 6.92782 135.309 7.64187C135.309 8.0602 135.246 8.46049 135.122 8.83735L120.897 46.3931C120.691 46.9792 120.349 47.4516 119.872 47.8086C119.396 48.1638 118.868 48.3441 118.287 48.3441H109.404C108.824 48.3441 108.297 48.1656 107.82 47.8086C107.344 47.4516 107.002 46.9792 106.794 46.3931L92.5696 8.83735C92.404 8.33427 92.3203 7.91414 92.3203 7.57876C92.3203 6.99093 92.4859 6.42475 92.8171 5.8802C93.0646 5.4186 93.3975 5.06338 93.8106 4.81094C94.2254 4.5585 94.6812 4.43408 95.178 4.43408H105.054C105.635 4.43408 106.173 4.61259 106.669 4.96961C107.166 5.32483 107.519 5.79726 107.725 6.38508L109.402 11.1652H118.472L120.149 6.44639C120.358 5.85856 120.709 5.37712 121.205 5.00027C121.702 4.62341 122.22 4.43408 122.758 4.43408H132.511C133.505 4.43408 134.292 4.91552 134.872 5.8802H134.874ZM111.146 23.0533C110.939 23.3472 110.834 23.661 110.834 23.9963C110.834 24.164 110.855 24.2903 110.896 24.3732L112.449 29.532C112.533 29.8674 112.709 30.1288 112.978 30.3182C113.246 30.5075 113.528 30.6012 113.816 30.6012C114.521 30.6012 114.975 30.2442 115.184 29.532L116.736 24.3732C116.777 24.2885 116.799 24.1424 116.799 23.9332C116.799 23.5564 116.717 23.2625 116.551 23.0515C116.179 22.6746 115.785 22.4853 115.371 22.4853H112.326C111.788 22.4853 111.395 22.6746 111.146 23.0515V23.0533Z" fill="white"/>
    <path d="M127.324 43.5893C127.024 42.7995 127.032 41.9917 127.345 41.1713L140.647 6.18138C140.96 5.35915 141.489 4.7569 142.234 4.37283C142.978 3.98877 143.718 3.94008 144.452 4.22678L157.784 9.42523C160.914 10.646 163.42 12.3427 165.302 14.5137C167.182 16.6865 168.318 19.1838 168.708 22.0093C169.098 24.8349 168.704 27.7956 167.529 30.8862C166.338 34.0183 164.639 36.5012 162.433 38.3368C160.225 40.1724 157.66 41.2615 154.734 41.6041C151.809 41.9467 148.741 41.4923 145.535 40.2409L144.089 39.6765C143.991 39.6386 143.882 39.6873 143.845 39.7865L141.256 46.5933C140.944 47.4156 140.416 48.0178 139.67 48.4019C138.925 48.786 138.185 48.8346 137.451 48.5479L128.871 45.2031C128.136 44.9164 127.621 44.3791 127.322 43.5875L127.324 43.5893ZM153.253 28.9604C154.303 28.4718 155.037 27.6802 155.455 26.5839C155.931 25.3325 155.902 24.2092 155.372 23.2138C154.839 22.2203 153.858 21.445 152.429 20.886L151.4 20.4839C150.618 20.1792 149.733 20.1755 148.987 20.5632C148.408 20.8643 147.999 21.3314 147.758 21.9625L146.687 24.7808C146.419 25.4858 146.439 26.1908 146.749 26.894C147.057 27.5991 147.561 28.0859 148.255 28.3582L149.473 28.8324C150.942 29.404 152.201 29.4473 153.253 28.9586V28.9604Z" fill="white"/>
    <path d="M101.389 43.9389L87.1642 6.38313C86.9559 5.79711 86.6159 5.32468 86.1405 4.96766C85.6633 4.61244 85.1363 4.43213 84.5558 4.43213H75.6729C75.0925 4.43213 74.5637 4.61064 74.0883 4.96766C73.6111 5.32468 73.2692 5.79711 73.0627 6.38313L58.8383 43.9389C58.7137 44.3158 58.6514 44.7161 58.6514 45.1344C58.6514 45.8484 58.7956 46.4345 59.0858 46.8961C59.6645 47.8607 60.4532 48.3422 61.4467 48.3422H71.1985C71.7362 48.3422 72.2544 48.1529 72.7511 47.776C73.2479 47.3991 73.5986 46.9159 73.807 46.3299L75.4842 41.6111H84.5523L86.2295 46.3912C86.436 46.979 86.7886 47.4514 87.2853 47.8067C87.7821 48.1637 88.3198 48.3422 88.9002 48.3422H98.7767C99.2734 48.3422 99.7292 48.216 100.144 47.9653C100.557 47.7129 100.89 47.3577 101.138 46.8961C101.469 46.3515 101.634 45.7853 101.634 45.1975C101.634 44.8621 101.551 44.442 101.385 43.9389H101.389ZM82.8163 29.723C82.5688 30.0998 82.1735 30.2892 81.6358 30.2892H78.5912C78.1763 30.2892 77.7828 30.0998 77.4107 29.723C77.2451 29.5138 77.1632 29.2199 77.1632 28.8412C77.1632 28.6321 77.1846 28.486 77.2255 28.4013L78.7781 23.2425C78.9846 22.5302 79.4405 22.1732 80.1437 22.1732C80.434 22.1732 80.7135 22.267 80.9824 22.4563C81.2512 22.6456 81.4275 22.9071 81.5112 23.2425L83.0638 28.4013C83.1047 28.486 83.1261 28.6122 83.1261 28.7781C83.1261 29.1135 83.0228 29.4291 82.8163 29.7212V29.723Z" fill="white"/>
    <path d="M166.066 11.302C168.078 11.302 169.71 9.64945 169.71 7.61095C169.71 5.57245 168.078 3.91992 166.066 3.91992C164.053 3.91992 162.421 5.57245 162.421 7.61095C162.421 9.64945 164.053 11.302 166.066 11.302Z" fill="white"/>
    <path d="M174.66 27.7737C176.673 27.7737 178.305 26.1211 178.305 24.0826C178.305 22.0441 176.673 20.3916 174.66 20.3916C172.647 20.3916 171.016 22.0441 171.016 24.0826C171.016 26.1211 172.647 27.7737 174.66 27.7737Z" fill="white"/>
    <path d="M172.625 18.3362C174.638 18.3362 176.27 16.6836 176.27 14.6451C176.27 12.6066 174.638 10.9541 172.625 10.9541C170.612 10.9541 168.98 12.6066 168.98 14.6451C168.98 16.6836 170.612 18.3362 172.625 18.3362Z" fill="white"/>
    </svg>
    