<svg width="117" height="33" viewBox="0 0 117 33" fill="none" xmlns="http://www.w3.org/2000/svg">
    <path d="M43.4419 3.93665C43.1208 3.36728 42.383 2.94959 41.7143 2.94959H35.5304C35.1287 2.94959 34.7673 3.0791 34.4462 3.33578C34.178 3.55046 33.9847 3.82698 33.8661 4.16417C33.7994 4.35318 33.728 4.54102 33.6463 4.7242L30.0347 12.7467C30.0197 12.805 29.9392 12.8062 29.923 12.7467L27.6718 4.32634C27.658 4.27617 27.6442 4.226 27.6258 4.177C27.49 3.80364 27.2771 3.49562 26.9893 3.25411C26.6809 2.99626 26.3264 2.86792 25.9247 2.86792H20.5441C20.1425 2.86792 19.788 2.99743 19.4795 3.25411C19.1906 3.49679 18.9789 3.80364 18.8431 4.177C18.8258 4.226 18.8108 4.27617 18.797 4.32634L16.5458 12.7467C16.5308 12.805 16.4491 12.8039 16.4342 12.7467L12.8225 4.7242C12.7408 4.54102 12.6695 4.35318 12.6027 4.16417C12.4842 3.82698 12.2908 3.55163 12.0226 3.33578C11.7015 3.07793 11.3401 2.94959 10.9385 2.94959H4.75453C4.08584 2.94959 3.34809 3.36612 3.02698 3.93665C2.69437 4.46635 2.80025 5.31223 2.86931 5.68209C2.88887 5.7871 2.91765 5.88977 2.95448 5.99011L11.888 29.8371C11.903 29.8767 11.9156 29.9176 11.9283 29.9584C12.0411 30.3376 12.2563 30.6491 12.5739 30.8941C12.9089 31.152 13.2633 31.2803 13.6386 31.2803H18.858C19.2597 31.2803 19.6211 31.152 19.9422 30.8941C20.2633 30.6363 20.4785 30.3037 20.5844 29.8966L23.1383 20.9337C23.1498 20.8952 23.1901 20.8847 23.2189 20.8998V20.9337C23.2223 20.9243 23.2281 20.9185 23.2338 20.9127C23.2396 20.9185 23.2454 20.9243 23.2488 20.9337V20.8998C23.2787 20.8847 23.319 20.8952 23.3305 20.9337L25.8844 29.8966C25.9915 30.3037 26.2055 30.6363 26.5267 30.8941C26.8478 31.152 27.2092 31.2803 27.6108 31.2803H32.8303C33.2043 31.2803 33.5588 31.152 33.8949 30.8941C34.2126 30.6503 34.4278 30.3376 34.5406 29.9584C34.5532 29.9176 34.5659 29.8767 34.5809 29.8371L43.5144 5.99011C43.5523 5.88977 43.58 5.7871 43.5995 5.68209C43.6674 5.3134 43.7745 4.46635 43.4419 3.93665Z" fill="#583522"/>
    <path d="M87.184 3.80462C87.3716 4.1033 87.4648 4.48249 87.4648 4.94452C87.4648 5.21521 87.4245 5.47422 87.3439 5.71807L78.1492 30.0189C78.0157 30.3981 77.7947 30.7038 77.4862 30.9348C77.1789 31.1646 76.8371 31.2813 76.4619 31.2813H70.7199C70.3447 31.2813 70.004 31.1658 69.6956 30.9348C69.3883 30.7038 69.1673 30.3981 69.0327 30.0189L59.8379 5.71807C59.7308 5.39255 59.6768 5.1207 59.6768 4.90369C59.6768 4.52333 59.7838 4.15697 59.9979 3.80462C60.1578 3.50594 60.3731 3.27609 60.6401 3.11274C60.9083 2.9494 61.2029 2.8689 61.524 2.8689H67.9082C68.2834 2.8689 68.631 2.9844 68.9521 3.21542C69.2732 3.44526 69.5011 3.75095 69.6346 4.13131L70.7188 7.22433H76.5816L77.6658 4.17098C77.8004 3.79062 78.0272 3.4791 78.3483 3.23525C78.6694 2.9914 79.0043 2.8689 79.3519 2.8689H85.6567C86.2989 2.8689 86.8076 3.18042 87.1828 3.80462H87.184ZM71.8455 14.9166C71.712 15.1068 71.6441 15.3098 71.6441 15.5268C71.6441 15.6353 71.6579 15.717 71.6844 15.7707L72.688 19.1087C72.7421 19.3257 72.856 19.4949 73.0298 19.6174C73.2036 19.7399 73.3855 19.8006 73.5719 19.8006C74.0277 19.8006 74.3212 19.5696 74.4558 19.1087L75.4594 15.7707C75.4859 15.7158 75.4997 15.6213 75.4997 15.486C75.4997 15.2421 75.4468 15.052 75.3397 14.9155C75.0992 14.6716 74.8448 14.5491 74.5767 14.5491H72.6086C72.261 14.5491 72.0067 14.6716 71.8455 14.9155V14.9166Z" fill="#583522"/>
    <path d="M82.3028 28.2048C82.1094 27.6937 82.114 27.171 82.3166 26.6402L90.9152 3.99965C91.1177 3.46761 91.4596 3.07792 91.9407 2.82941C92.4218 2.58089 92.9005 2.54939 93.3747 2.7349L101.993 6.09861C104.016 6.88849 105.636 7.98639 106.852 9.39114C108.067 10.7971 108.802 12.413 109.054 14.2413C109.306 16.0695 109.052 17.9853 108.292 19.9851C107.522 22.0117 106.424 23.6183 104.998 24.8061C103.571 25.9938 101.912 26.6985 100.021 26.9202C98.1304 27.1419 96.1473 26.8479 94.0745 26.0381L93.1399 25.673C93.0766 25.6485 93.0064 25.68 92.9823 25.7441L91.3088 30.1486C91.1074 30.6806 90.7656 31.0703 90.2833 31.3188C89.8022 31.5673 89.3234 31.5988 88.8493 31.4133L83.3029 29.249C82.8276 29.0635 82.495 28.7158 82.3016 28.2036L82.3028 28.2048ZM99.0638 18.739C99.7428 18.4229 100.217 17.9107 100.487 17.2013C100.795 16.3916 100.776 15.6647 100.433 15.0206C100.089 14.3778 99.4551 13.8761 98.5309 13.5144L97.8656 13.2542C97.3604 13.057 96.7884 13.0547 96.3061 13.3055C95.9321 13.5004 95.6674 13.8026 95.512 14.2109L94.8191 16.0345C94.6465 16.4907 94.6592 16.9469 94.8594 17.402C95.0585 17.8582 95.3842 18.1732 95.8331 18.3493L96.6203 18.6562C97.5699 19.0261 98.3836 19.0541 99.0638 18.7379V18.739Z" fill="#583522"/>
    <path d="M65.5383 28.4311L56.3436 4.13033C56.2089 3.75114 55.9891 3.44545 55.6818 3.21444C55.3733 2.98459 55.0327 2.86792 54.6575 2.86792H48.9155C48.5403 2.86792 48.1984 2.98343 47.8912 3.21444C47.5827 3.44545 47.3617 3.75114 47.2282 4.13033L38.0334 28.4311C37.9529 28.675 37.9126 28.934 37.9126 29.2047C37.9126 29.6667 38.0058 30.0459 38.1934 30.3446C38.5675 30.9688 39.0773 31.2803 39.7196 31.2803H46.0232C46.3708 31.2803 46.7057 31.1578 47.0268 30.914C47.3479 30.6701 47.5746 30.3574 47.7093 29.9782L48.7935 26.9249H54.6552L55.7393 30.0179C55.8728 30.3983 56.1007 30.7039 56.4218 30.9338C56.743 31.1648 57.0905 31.2803 57.4657 31.2803H63.8499C64.171 31.2803 64.4657 31.1986 64.7339 31.0365C65.0009 30.8731 65.2161 30.6433 65.3761 30.3446C65.5901 29.9922 65.6972 29.6259 65.6972 29.2455C65.6972 29.0285 65.6431 28.7567 65.536 28.4311H65.5383ZM53.533 19.2326C53.373 19.4764 53.1175 19.5989 52.7699 19.5989H50.8019C50.5337 19.5989 50.2793 19.4764 50.0388 19.2326C49.9317 19.0972 49.8788 18.9071 49.8788 18.662C49.8788 18.5267 49.8926 18.4322 49.9191 18.3774L50.9227 15.0393C51.0562 14.5785 51.3508 14.3474 51.8055 14.3474C51.9931 14.3474 52.1738 14.4081 52.3475 14.5306C52.5213 14.6531 52.6353 14.8223 52.6894 15.0393L53.693 18.3774C53.7195 18.4322 53.7333 18.5139 53.7333 18.6212C53.7333 18.8382 53.6665 19.0424 53.533 19.2314V19.2326Z" fill="#583522"/>
    <path d="M107.346 7.313C108.647 7.313 109.702 6.24372 109.702 4.92469C109.702 3.60566 108.647 2.53638 107.346 2.53638C106.045 2.53638 104.99 3.60566 104.99 4.92469C104.99 6.24372 106.045 7.313 107.346 7.313Z" fill="#A8D3C3"/>
    <path d="M112.902 17.9712C114.203 17.9712 115.258 16.9019 115.258 15.5829C115.258 14.2639 114.203 13.1946 112.902 13.1946C111.601 13.1946 110.546 14.2639 110.546 15.5829C110.546 16.9019 111.601 17.9712 112.902 17.9712Z" fill="#583522"/>
    <path d="M111.586 11.8645C112.888 11.8645 113.942 10.7952 113.942 9.4762C113.942 8.15717 112.888 7.08789 111.586 7.08789C110.285 7.08789 109.23 8.15717 109.23 9.4762C109.23 10.7952 110.285 11.8645 111.586 11.8645Z" fill="#F1D543"/>
    </svg>