<svg width="729" height="772" viewBox="0 0 729 772" fill="none" xmlns="http://www.w3.org/2000/svg">
<path fill-rule="evenodd" clip-rule="evenodd" d="M567.58 772C666.97 678.375 729 545.668 729 398.5C729 237.696 654.941 94.155 539.008 0H0V772H567.58Z" fill="#A5D0C0" fill-opacity="0.88"/>
<rect x="138" y="185" width="412" height="66" rx="20" fill="white"/>
<circle cx="115.48" cy="216.48" r="5.48021" transform="rotate(90 115.48 216.48)" fill="white"/>
<circle cx="115.48" cy="393.413" r="5.48021" transform="rotate(90 115.48 393.413)" fill="#D1E7DF"/>
<circle cx="115.48" cy="483.053" r="5.48021" transform="rotate(90 115.48 483.053)" fill="#D1E7DF"/>
<circle cx="115.48" cy="571.52" r="5.48021" transform="rotate(90 115.48 571.52)" fill="#D1E7DF"/>
<path d="M115.48 216.089L115.48 571.52" stroke="#D1E7DF" stroke-width="4"/>
<path d="M115.48 216.089L115.48 306.512" stroke="white" stroke-width="4"/>
<circle cx="115.48" cy="306.512" r="5.48021" transform="rotate(90 115.48 306.512)" fill="white"/>
<path d="M227.938 212.2H229.978V229H227.938V212.2ZM229.066 214.12V212.2H232.498C233.586 212.2 234.554 212.408 235.402 212.824C236.266 213.224 236.946 213.8 237.442 214.552C237.954 215.304 238.21 216.2 238.21 217.24C238.21 218.264 237.954 219.16 237.442 219.928C236.946 220.68 236.266 221.264 235.402 221.68C234.554 222.08 233.586 222.28 232.498 222.28H229.066V220.36H232.498C233.586 220.36 234.466 220.096 235.138 219.568C235.826 219.04 236.17 218.264 236.17 217.24C236.17 216.2 235.826 215.424 235.138 214.912C234.466 214.384 233.586 214.12 232.498 214.12H229.066ZM242.887 210.28V229H240.967V210.28H242.887ZM248.047 222.28C248.047 221.368 247.847 220.68 247.447 220.216C247.063 219.752 246.479 219.52 245.695 219.52C245.135 219.52 244.639 219.64 244.207 219.88C243.791 220.12 243.463 220.448 243.223 220.864C242.999 221.28 242.887 221.752 242.887 222.28H242.263C242.263 221.4 242.431 220.624 242.767 219.952C243.103 219.264 243.559 218.72 244.135 218.32C244.727 217.92 245.407 217.72 246.175 217.72C246.943 217.72 247.607 217.88 248.167 218.2C248.743 218.52 249.183 219 249.487 219.64C249.807 220.28 249.967 221.08 249.967 222.04V229H248.047V222.28ZM254.44 225.592C254.44 226.008 254.536 226.368 254.728 226.672C254.936 226.976 255.216 227.208 255.568 227.368C255.936 227.512 256.352 227.584 256.816 227.584C257.408 227.584 257.936 227.464 258.4 227.224C258.88 226.984 259.256 226.648 259.528 226.216C259.816 225.768 259.96 225.256 259.96 224.68L260.344 226.12C260.344 226.824 260.128 227.408 259.696 227.872C259.28 228.336 258.76 228.68 258.136 228.904C257.528 229.128 256.92 229.24 256.312 229.24C255.64 229.24 255.008 229.104 254.416 228.832C253.84 228.544 253.376 228.136 253.024 227.608C252.672 227.08 252.496 226.44 252.496 225.688C252.496 224.616 252.872 223.76 253.624 223.12C254.392 222.464 255.456 222.136 256.816 222.136C257.616 222.136 258.28 222.232 258.808 222.424C259.352 222.6 259.784 222.808 260.104 223.048C260.424 223.272 260.64 223.456 260.752 223.6V224.728C260.192 224.344 259.616 224.072 259.024 223.912C258.432 223.736 257.8 223.648 257.128 223.648C256.504 223.648 255.992 223.728 255.592 223.888C255.208 224.048 254.92 224.272 254.728 224.56C254.536 224.848 254.44 225.192 254.44 225.592ZM254.152 220.504L253.216 219.088C253.632 218.784 254.2 218.48 254.92 218.176C255.656 217.872 256.536 217.72 257.56 217.72C258.424 217.72 259.176 217.856 259.816 218.128C260.472 218.384 260.976 218.76 261.328 219.256C261.696 219.752 261.88 220.36 261.88 221.08V229H259.96V221.344C259.96 220.96 259.896 220.648 259.768 220.408C259.64 220.152 259.456 219.952 259.216 219.808C258.992 219.664 258.728 219.56 258.424 219.496C258.12 219.432 257.8 219.4 257.464 219.4C256.92 219.4 256.424 219.464 255.976 219.592C255.544 219.72 255.176 219.872 254.872 220.048C254.568 220.224 254.328 220.376 254.152 220.504ZM265.587 225.616C265.811 225.952 266.067 226.264 266.355 226.552C266.643 226.84 266.971 227.072 267.339 227.248C267.723 227.408 268.139 227.488 268.587 227.488C269.131 227.488 269.555 227.368 269.859 227.128C270.179 226.872 270.339 226.528 270.339 226.096C270.339 225.712 270.211 225.392 269.955 225.136C269.715 224.864 269.403 224.64 269.019 224.464C268.635 224.272 268.227 224.096 267.795 223.936C267.315 223.744 266.827 223.52 266.331 223.264C265.851 222.992 265.443 222.648 265.107 222.232C264.787 221.8 264.627 221.264 264.627 220.624C264.627 219.968 264.795 219.424 265.131 218.992C265.483 218.56 265.931 218.24 266.475 218.032C267.035 217.824 267.611 217.72 268.203 217.72C268.795 217.72 269.347 217.816 269.859 218.008C270.387 218.2 270.851 218.456 271.251 218.776C271.651 219.096 271.963 219.464 272.187 219.88L270.651 220.864C270.347 220.448 269.963 220.104 269.499 219.832C269.051 219.56 268.539 219.424 267.963 219.424C267.563 219.424 267.219 219.512 266.931 219.688C266.643 219.864 266.499 220.136 266.499 220.504C266.499 220.792 266.611 221.048 266.835 221.272C267.059 221.496 267.347 221.696 267.699 221.872C268.051 222.048 268.419 222.216 268.803 222.376C269.443 222.632 270.027 222.912 270.555 223.216C271.083 223.504 271.499 223.856 271.803 224.272C272.123 224.688 272.283 225.224 272.283 225.88C272.283 226.84 271.931 227.64 271.227 228.28C270.539 228.92 269.627 229.24 268.491 229.24C267.755 229.24 267.091 229.112 266.499 228.856C265.907 228.584 265.403 228.24 264.987 227.824C264.587 227.408 264.283 226.984 264.075 226.552L265.587 225.616ZM279.082 229.24C278.058 229.24 277.146 229 276.346 228.52C275.562 228.024 274.946 227.344 274.498 226.48C274.066 225.616 273.85 224.616 273.85 223.48C273.85 222.328 274.074 221.32 274.522 220.456C274.986 219.592 275.626 218.92 276.442 218.44C277.274 217.96 278.234 217.72 279.322 217.72C280.41 217.72 281.338 217.952 282.106 218.416C282.89 218.864 283.49 219.512 283.906 220.36C284.322 221.208 284.53 222.216 284.53 223.384C284.53 223.496 284.522 223.616 284.506 223.744C284.506 223.856 284.506 223.928 284.506 223.96H275.074V222.328H282.994L282.226 223.432C282.274 223.352 282.322 223.232 282.37 223.072C282.418 222.896 282.442 222.752 282.442 222.64C282.442 221.984 282.306 221.416 282.034 220.936C281.778 220.456 281.418 220.08 280.954 219.808C280.49 219.536 279.946 219.4 279.322 219.4C278.586 219.4 277.954 219.56 277.426 219.88C276.914 220.184 276.514 220.632 276.226 221.224C275.954 221.8 275.81 222.512 275.794 223.36C275.794 224.224 275.93 224.96 276.202 225.568C276.474 226.176 276.874 226.64 277.402 226.96C277.93 227.28 278.57 227.44 279.322 227.44C280.074 227.44 280.738 227.28 281.314 226.96C281.89 226.624 282.378 226.12 282.778 225.448L284.338 226.432C283.762 227.36 283.034 228.064 282.154 228.544C281.29 229.008 280.266 229.24 279.082 229.24ZM302.637 210.28H304.557V229H302.637V210.28ZM293.397 223.48C293.397 222.28 293.645 221.256 294.141 220.408C294.637 219.544 295.301 218.88 296.133 218.416C296.965 217.952 297.877 217.72 298.869 217.72C299.797 217.72 300.605 217.952 301.293 218.416C301.981 218.88 302.517 219.544 302.901 220.408C303.301 221.256 303.501 222.28 303.501 223.48C303.501 224.664 303.301 225.688 302.901 226.552C302.517 227.416 301.981 228.08 301.293 228.544C300.605 229.008 299.797 229.24 298.869 229.24C297.877 229.24 296.965 229.008 296.133 228.544C295.301 228.08 294.637 227.416 294.141 226.552C293.645 225.688 293.397 224.664 293.397 223.48ZM295.341 223.48C295.341 224.328 295.509 225.048 295.845 225.64C296.197 226.232 296.661 226.68 297.237 226.984C297.813 227.288 298.437 227.44 299.109 227.44C299.669 227.44 300.221 227.288 300.765 226.984C301.309 226.68 301.757 226.232 302.109 225.64C302.461 225.048 302.637 224.328 302.637 223.48C302.637 222.632 302.461 221.912 302.109 221.32C301.757 220.728 301.309 220.28 300.765 219.976C300.221 219.672 299.669 219.52 299.109 219.52C298.437 219.52 297.813 219.672 297.237 219.976C296.661 220.28 296.197 220.728 295.845 221.32C295.509 221.912 295.341 222.632 295.341 223.48ZM312.317 229.24C311.293 229.24 310.381 229 309.581 228.52C308.797 228.024 308.181 227.344 307.733 226.48C307.301 225.616 307.085 224.616 307.085 223.48C307.085 222.328 307.309 221.32 307.757 220.456C308.221 219.592 308.861 218.92 309.677 218.44C310.509 217.96 311.469 217.72 312.557 217.72C313.645 217.72 314.573 217.952 315.341 218.416C316.125 218.864 316.725 219.512 317.141 220.36C317.557 221.208 317.765 222.216 317.765 223.384C317.765 223.496 317.757 223.616 317.741 223.744C317.741 223.856 317.741 223.928 317.741 223.96H308.309V222.328H316.229L315.461 223.432C315.509 223.352 315.557 223.232 315.605 223.072C315.653 222.896 315.677 222.752 315.677 222.64C315.677 221.984 315.541 221.416 315.269 220.936C315.013 220.456 314.653 220.08 314.189 219.808C313.725 219.536 313.181 219.4 312.557 219.4C311.821 219.4 311.189 219.56 310.661 219.88C310.149 220.184 309.749 220.632 309.461 221.224C309.189 221.8 309.045 222.512 309.029 223.36C309.029 224.224 309.165 224.96 309.437 225.568C309.709 226.176 310.109 226.64 310.637 226.96C311.165 227.28 311.805 227.44 312.557 227.44C313.309 227.44 313.973 227.28 314.549 226.96C315.125 226.624 315.613 226.12 316.013 225.448L317.573 226.432C316.997 227.36 316.269 228.064 315.389 228.544C314.525 229.008 313.501 229.24 312.317 229.24ZM329.512 217.96V229H327.592V217.96H329.512ZM332.848 220.072C332.592 219.88 332.36 219.744 332.152 219.664C331.944 219.568 331.68 219.52 331.36 219.52C330.88 219.52 330.504 219.64 330.232 219.88C329.96 220.12 329.768 220.448 329.656 220.864C329.56 221.28 329.512 221.752 329.512 222.28H328.648C328.648 221.4 328.8 220.624 329.104 219.952C329.424 219.264 329.832 218.72 330.328 218.32C330.824 217.92 331.328 217.72 331.84 217.72C332.24 217.72 332.608 217.776 332.944 217.888C333.296 217.984 333.616 218.184 333.904 218.488L332.848 220.072ZM339.739 229.24C338.715 229.24 337.803 229 337.003 228.52C336.219 228.024 335.603 227.344 335.155 226.48C334.723 225.616 334.507 224.616 334.507 223.48C334.507 222.328 334.731 221.32 335.179 220.456C335.643 219.592 336.283 218.92 337.099 218.44C337.931 217.96 338.891 217.72 339.979 217.72C341.067 217.72 341.995 217.952 342.763 218.416C343.547 218.864 344.147 219.512 344.563 220.36C344.979 221.208 345.187 222.216 345.187 223.384C345.187 223.496 345.179 223.616 345.163 223.744C345.163 223.856 345.163 223.928 345.163 223.96H335.731V222.328H343.651L342.883 223.432C342.931 223.352 342.979 223.232 343.027 223.072C343.075 222.896 343.099 222.752 343.099 222.64C343.099 221.984 342.963 221.416 342.691 220.936C342.435 220.456 342.075 220.08 341.611 219.808C341.147 219.536 340.603 219.4 339.979 219.4C339.243 219.4 338.611 219.56 338.083 219.88C337.571 220.184 337.171 220.632 336.883 221.224C336.611 221.8 336.467 222.512 336.451 223.36C336.451 224.224 336.587 224.96 336.859 225.568C337.131 226.176 337.531 226.64 338.059 226.96C338.587 227.28 339.227 227.44 339.979 227.44C340.731 227.44 341.395 227.28 341.971 226.96C342.547 226.624 343.035 226.12 343.435 225.448L344.995 226.432C344.419 227.36 343.691 228.064 342.811 228.544C341.947 229.008 340.923 229.24 339.739 229.24ZM346.978 217.96H352.498V219.76H346.978V217.96ZM352.306 212.584C352.146 212.312 351.954 212.144 351.73 212.08C351.522 212 351.322 211.96 351.13 211.96C350.89 211.96 350.682 212.032 350.506 212.176C350.346 212.304 350.218 212.528 350.122 212.848C350.026 213.168 349.978 213.592 349.978 214.12V229H348.058V213.88C348.058 213 348.186 212.28 348.442 211.72C348.698 211.16 349.058 210.744 349.522 210.472C350.002 210.184 350.578 210.04 351.25 210.04C351.602 210.04 351.914 210.088 352.186 210.184C352.458 210.28 352.69 210.4 352.882 210.544C353.09 210.688 353.25 210.84 353.362 211L352.306 212.584ZM354.685 210.28H356.605V229H354.685V210.28ZM364.489 229.24C363.465 229.24 362.553 229 361.753 228.52C360.969 228.024 360.353 227.344 359.905 226.48C359.473 225.616 359.257 224.616 359.257 223.48C359.257 222.328 359.481 221.32 359.929 220.456C360.393 219.592 361.033 218.92 361.849 218.44C362.681 217.96 363.641 217.72 364.729 217.72C365.817 217.72 366.745 217.952 367.513 218.416C368.297 218.864 368.897 219.512 369.313 220.36C369.729 221.208 369.937 222.216 369.937 223.384C369.937 223.496 369.929 223.616 369.913 223.744C369.913 223.856 369.913 223.928 369.913 223.96H360.481V222.328H368.401L367.633 223.432C367.681 223.352 367.729 223.232 367.777 223.072C367.825 222.896 367.849 222.752 367.849 222.64C367.849 221.984 367.713 221.416 367.441 220.936C367.185 220.456 366.825 220.08 366.361 219.808C365.897 219.536 365.353 219.4 364.729 219.4C363.993 219.4 363.361 219.56 362.833 219.88C362.321 220.184 361.921 220.632 361.633 221.224C361.361 221.8 361.217 222.512 361.201 223.36C361.201 224.224 361.337 224.96 361.609 225.568C361.881 226.176 362.281 226.64 362.809 226.96C363.337 227.28 363.977 227.44 364.729 227.44C365.481 227.44 366.145 227.28 366.721 226.96C367.297 226.624 367.785 226.12 368.185 225.448L369.745 226.432C369.169 227.36 368.441 228.064 367.561 228.544C366.697 229.008 365.673 229.24 364.489 229.24ZM378.097 217.96H380.257L376.489 223.312L380.497 229H378.337L375.457 224.824L372.577 229H370.417L374.425 223.312L370.657 217.96H372.817L375.457 221.8L378.097 217.96ZM382.295 213.4C382.295 213.032 382.423 212.72 382.679 212.464C382.951 212.208 383.263 212.08 383.615 212.08C383.983 212.08 384.295 212.208 384.551 212.464C384.807 212.72 384.935 213.032 384.935 213.4C384.935 213.752 384.807 214.064 384.551 214.336C384.295 214.592 383.983 214.72 383.615 214.72C383.263 214.72 382.951 214.592 382.679 214.336C382.423 214.064 382.295 213.752 382.295 213.4ZM382.655 217.96H384.575V229H382.655V217.96ZM387.569 223.48C387.569 222.36 387.817 221.368 388.313 220.504C388.825 219.64 389.513 218.96 390.377 218.464C391.241 217.968 392.209 217.72 393.281 217.72C394.369 217.72 395.337 217.968 396.185 218.464C397.049 218.96 397.729 219.64 398.225 220.504C398.737 221.368 398.993 222.36 398.993 223.48C398.993 224.584 398.737 225.576 398.225 226.456C397.729 227.32 397.049 228 396.185 228.496C395.337 228.992 394.369 229.24 393.281 229.24C392.209 229.24 391.241 228.992 390.377 228.496C389.513 228 388.825 227.32 388.313 226.456C387.817 225.576 387.569 224.584 387.569 223.48ZM389.513 223.48C389.513 224.248 389.673 224.928 389.993 225.52C390.329 226.112 390.777 226.584 391.337 226.936C391.913 227.272 392.561 227.44 393.281 227.44C394.001 227.44 394.641 227.272 395.201 226.936C395.777 226.584 396.225 226.112 396.545 225.52C396.881 224.928 397.049 224.248 397.049 223.48C397.049 222.712 396.881 222.032 396.545 221.44C396.225 220.832 395.777 220.36 395.201 220.024C394.641 219.688 394.001 219.52 393.281 219.52C392.561 219.52 391.913 219.688 391.337 220.024C390.777 220.36 390.329 220.832 389.993 221.44C389.673 222.032 389.513 222.712 389.513 223.48ZM408.711 222.28C408.711 221.368 408.511 220.68 408.111 220.216C407.711 219.752 407.127 219.52 406.359 219.52C405.799 219.52 405.303 219.64 404.871 219.88C404.455 220.104 404.127 220.424 403.887 220.84C403.663 221.256 403.551 221.736 403.551 222.28V229H401.631V217.96H403.551V219.688C403.919 219.016 404.375 218.52 404.919 218.2C405.479 217.88 406.119 217.72 406.839 217.72C408.007 217.72 408.927 218.112 409.599 218.896C410.287 219.664 410.631 220.712 410.631 222.04V229H408.711V222.28Z" fill="#5B321D"/>
<path d="M173.56 211.016V208.2L181.24 206.28V229H178.52V209.544L173.56 211.016ZM188.446 227.72C188.446 227.229 188.617 226.813 188.958 226.472C189.321 226.131 189.737 225.96 190.206 225.96C190.697 225.96 191.113 226.131 191.454 226.472C191.796 226.813 191.966 227.229 191.966 227.72C191.966 228.189 191.796 228.605 191.454 228.968C191.113 229.309 190.697 229.48 190.206 229.48C189.737 229.48 189.321 229.309 188.958 228.968C188.617 228.605 188.446 228.189 188.446 227.72Z" fill="black"/>
<rect x="140" y="268" width="413" height="66" rx="20" fill="white"/>
<path d="M229.938 295.2H231.978V312H229.938V295.2ZM231.066 297.12V295.2H234.498C235.586 295.2 236.554 295.408 237.402 295.824C238.266 296.224 238.946 296.8 239.442 297.552C239.954 298.304 240.21 299.2 240.21 300.24C240.21 301.264 239.954 302.16 239.442 302.928C238.946 303.68 238.266 304.264 237.402 304.68C236.554 305.08 235.586 305.28 234.498 305.28H231.066V303.36H234.498C235.586 303.36 236.466 303.096 237.138 302.568C237.826 302.04 238.17 301.264 238.17 300.24C238.17 299.2 237.826 298.424 237.138 297.912C236.466 297.384 235.586 297.12 234.498 297.12H231.066ZM244.887 293.28V312H242.967V293.28H244.887ZM250.047 305.28C250.047 304.368 249.847 303.68 249.447 303.216C249.063 302.752 248.479 302.52 247.695 302.52C247.135 302.52 246.639 302.64 246.207 302.88C245.791 303.12 245.463 303.448 245.223 303.864C244.999 304.28 244.887 304.752 244.887 305.28H244.263C244.263 304.4 244.431 303.624 244.767 302.952C245.103 302.264 245.559 301.72 246.135 301.32C246.727 300.92 247.407 300.72 248.175 300.72C248.943 300.72 249.607 300.88 250.167 301.2C250.743 301.52 251.183 302 251.487 302.64C251.807 303.28 251.967 304.08 251.967 305.04V312H250.047V305.28ZM256.44 308.592C256.44 309.008 256.536 309.368 256.728 309.672C256.936 309.976 257.216 310.208 257.568 310.368C257.936 310.512 258.352 310.584 258.816 310.584C259.408 310.584 259.936 310.464 260.4 310.224C260.88 309.984 261.256 309.648 261.528 309.216C261.816 308.768 261.96 308.256 261.96 307.68L262.344 309.12C262.344 309.824 262.128 310.408 261.696 310.872C261.28 311.336 260.76 311.68 260.136 311.904C259.528 312.128 258.92 312.24 258.312 312.24C257.64 312.24 257.008 312.104 256.416 311.832C255.84 311.544 255.376 311.136 255.024 310.608C254.672 310.08 254.496 309.44 254.496 308.688C254.496 307.616 254.872 306.76 255.624 306.12C256.392 305.464 257.456 305.136 258.816 305.136C259.616 305.136 260.28 305.232 260.808 305.424C261.352 305.6 261.784 305.808 262.104 306.048C262.424 306.272 262.64 306.456 262.752 306.6V307.728C262.192 307.344 261.616 307.072 261.024 306.912C260.432 306.736 259.8 306.648 259.128 306.648C258.504 306.648 257.992 306.728 257.592 306.888C257.208 307.048 256.92 307.272 256.728 307.56C256.536 307.848 256.44 308.192 256.44 308.592ZM256.152 303.504L255.216 302.088C255.632 301.784 256.2 301.48 256.92 301.176C257.656 300.872 258.536 300.72 259.56 300.72C260.424 300.72 261.176 300.856 261.816 301.128C262.472 301.384 262.976 301.76 263.328 302.256C263.696 302.752 263.88 303.36 263.88 304.08V312H261.96V304.344C261.96 303.96 261.896 303.648 261.768 303.408C261.64 303.152 261.456 302.952 261.216 302.808C260.992 302.664 260.728 302.56 260.424 302.496C260.12 302.432 259.8 302.4 259.464 302.4C258.92 302.4 258.424 302.464 257.976 302.592C257.544 302.72 257.176 302.872 256.872 303.048C256.568 303.224 256.328 303.376 256.152 303.504ZM267.587 308.616C267.811 308.952 268.067 309.264 268.355 309.552C268.643 309.84 268.971 310.072 269.339 310.248C269.723 310.408 270.139 310.488 270.587 310.488C271.131 310.488 271.555 310.368 271.859 310.128C272.179 309.872 272.339 309.528 272.339 309.096C272.339 308.712 272.211 308.392 271.955 308.136C271.715 307.864 271.403 307.64 271.019 307.464C270.635 307.272 270.227 307.096 269.795 306.936C269.315 306.744 268.827 306.52 268.331 306.264C267.851 305.992 267.443 305.648 267.107 305.232C266.787 304.8 266.627 304.264 266.627 303.624C266.627 302.968 266.795 302.424 267.131 301.992C267.483 301.56 267.931 301.24 268.475 301.032C269.035 300.824 269.611 300.72 270.203 300.72C270.795 300.72 271.347 300.816 271.859 301.008C272.387 301.2 272.851 301.456 273.251 301.776C273.651 302.096 273.963 302.464 274.187 302.88L272.651 303.864C272.347 303.448 271.963 303.104 271.499 302.832C271.051 302.56 270.539 302.424 269.963 302.424C269.563 302.424 269.219 302.512 268.931 302.688C268.643 302.864 268.499 303.136 268.499 303.504C268.499 303.792 268.611 304.048 268.835 304.272C269.059 304.496 269.347 304.696 269.699 304.872C270.051 305.048 270.419 305.216 270.803 305.376C271.443 305.632 272.027 305.912 272.555 306.216C273.083 306.504 273.499 306.856 273.803 307.272C274.123 307.688 274.283 308.224 274.283 308.88C274.283 309.84 273.931 310.64 273.227 311.28C272.539 311.92 271.627 312.24 270.491 312.24C269.755 312.24 269.091 312.112 268.499 311.856C267.907 311.584 267.403 311.24 266.987 310.824C266.587 310.408 266.283 309.984 266.075 309.552L267.587 308.616ZM281.082 312.24C280.058 312.24 279.146 312 278.346 311.52C277.562 311.024 276.946 310.344 276.498 309.48C276.066 308.616 275.85 307.616 275.85 306.48C275.85 305.328 276.074 304.32 276.522 303.456C276.986 302.592 277.626 301.92 278.442 301.44C279.274 300.96 280.234 300.72 281.322 300.72C282.41 300.72 283.338 300.952 284.106 301.416C284.89 301.864 285.49 302.512 285.906 303.36C286.322 304.208 286.53 305.216 286.53 306.384C286.53 306.496 286.522 306.616 286.506 306.744C286.506 306.856 286.506 306.928 286.506 306.96H277.074V305.328H284.994L284.226 306.432C284.274 306.352 284.322 306.232 284.37 306.072C284.418 305.896 284.442 305.752 284.442 305.64C284.442 304.984 284.306 304.416 284.034 303.936C283.778 303.456 283.418 303.08 282.954 302.808C282.49 302.536 281.946 302.4 281.322 302.4C280.586 302.4 279.954 302.56 279.426 302.88C278.914 303.184 278.514 303.632 278.226 304.224C277.954 304.8 277.81 305.512 277.794 306.36C277.794 307.224 277.93 307.96 278.202 308.568C278.474 309.176 278.874 309.64 279.402 309.96C279.93 310.28 280.57 310.44 281.322 310.44C282.074 310.44 282.738 310.28 283.314 309.96C283.89 309.624 284.378 309.12 284.778 308.448L286.338 309.432C285.762 310.36 285.034 311.064 284.154 311.544C283.29 312.008 282.266 312.24 281.082 312.24ZM304.637 293.28H306.557V312H304.637V293.28ZM295.397 306.48C295.397 305.28 295.645 304.256 296.141 303.408C296.637 302.544 297.301 301.88 298.133 301.416C298.965 300.952 299.877 300.72 300.869 300.72C301.797 300.72 302.605 300.952 303.293 301.416C303.981 301.88 304.517 302.544 304.901 303.408C305.301 304.256 305.501 305.28 305.501 306.48C305.501 307.664 305.301 308.688 304.901 309.552C304.517 310.416 303.981 311.08 303.293 311.544C302.605 312.008 301.797 312.24 300.869 312.24C299.877 312.24 298.965 312.008 298.133 311.544C297.301 311.08 296.637 310.416 296.141 309.552C295.645 308.688 295.397 307.664 295.397 306.48ZM297.341 306.48C297.341 307.328 297.509 308.048 297.845 308.64C298.197 309.232 298.661 309.68 299.237 309.984C299.813 310.288 300.437 310.44 301.109 310.44C301.669 310.44 302.221 310.288 302.765 309.984C303.309 309.68 303.757 309.232 304.109 308.64C304.461 308.048 304.637 307.328 304.637 306.48C304.637 305.632 304.461 304.912 304.109 304.32C303.757 303.728 303.309 303.28 302.765 302.976C302.221 302.672 301.669 302.52 301.109 302.52C300.437 302.52 299.813 302.672 299.237 302.976C298.661 303.28 298.197 303.728 297.845 304.32C297.509 304.912 297.341 305.632 297.341 306.48ZM310.885 295.2H313.165L310.765 300.72H309.445L310.885 295.2ZM316.654 296.4C316.654 296.032 316.782 295.72 317.038 295.464C317.31 295.208 317.622 295.08 317.974 295.08C318.342 295.08 318.654 295.208 318.91 295.464C319.166 295.72 319.294 296.032 319.294 296.4C319.294 296.752 319.166 297.064 318.91 297.336C318.654 297.592 318.342 297.72 317.974 297.72C317.622 297.72 317.31 297.592 317.038 297.336C316.782 297.064 316.654 296.752 316.654 296.4ZM317.014 300.96H318.934V312H317.014V300.96ZM329.968 305.28C329.968 304.368 329.768 303.68 329.368 303.216C328.968 302.752 328.384 302.52 327.616 302.52C327.056 302.52 326.56 302.64 326.128 302.88C325.712 303.104 325.384 303.424 325.144 303.84C324.92 304.256 324.808 304.736 324.808 305.28V312H322.888V300.96H324.808V302.688C325.176 302.016 325.632 301.52 326.176 301.2C326.736 300.88 327.376 300.72 328.096 300.72C329.264 300.72 330.184 301.112 330.856 301.896C331.544 302.664 331.888 303.712 331.888 305.04V312H329.968V305.28ZM333.818 300.96H339.338V302.76H333.818V300.96ZM335.618 297.12H337.538V312H335.618V297.12ZM345.535 312.24C344.511 312.24 343.599 312 342.799 311.52C342.015 311.024 341.399 310.344 340.951 309.48C340.519 308.616 340.303 307.616 340.303 306.48C340.303 305.328 340.527 304.32 340.975 303.456C341.439 302.592 342.079 301.92 342.895 301.44C343.727 300.96 344.687 300.72 345.775 300.72C346.863 300.72 347.791 300.952 348.559 301.416C349.343 301.864 349.943 302.512 350.359 303.36C350.775 304.208 350.983 305.216 350.983 306.384C350.983 306.496 350.975 306.616 350.959 306.744C350.959 306.856 350.959 306.928 350.959 306.96H341.527V305.328H349.447L348.679 306.432C348.727 306.352 348.775 306.232 348.823 306.072C348.871 305.896 348.895 305.752 348.895 305.64C348.895 304.984 348.759 304.416 348.487 303.936C348.231 303.456 347.871 303.08 347.407 302.808C346.943 302.536 346.399 302.4 345.775 302.4C345.039 302.4 344.407 302.56 343.879 302.88C343.367 303.184 342.967 303.632 342.679 304.224C342.407 304.8 342.263 305.512 342.247 306.36C342.247 307.224 342.383 307.96 342.655 308.568C342.927 309.176 343.327 309.64 343.855 309.96C344.383 310.28 345.023 310.44 345.775 310.44C346.527 310.44 347.191 310.28 347.767 309.96C348.343 309.624 348.831 309.12 349.231 308.448L350.791 309.432C350.215 310.36 349.487 311.064 348.607 311.544C347.743 312.008 346.719 312.24 345.535 312.24ZM355.535 300.96V312H353.615V300.96H355.535ZM358.871 303.072C358.615 302.88 358.383 302.744 358.175 302.664C357.967 302.568 357.703 302.52 357.383 302.52C356.903 302.52 356.527 302.64 356.255 302.88C355.983 303.12 355.791 303.448 355.679 303.864C355.583 304.28 355.535 304.752 355.535 305.28H354.671C354.671 304.4 354.823 303.624 355.127 302.952C355.447 302.264 355.855 301.72 356.351 301.32C356.847 300.92 357.351 300.72 357.863 300.72C358.263 300.72 358.631 300.776 358.967 300.888C359.319 300.984 359.639 301.184 359.927 301.488L358.871 303.072ZM360.768 300.96H362.928L366.048 308.76L369.168 300.96H371.328L366.048 312.84L360.768 300.96ZM373.138 296.4C373.138 296.032 373.266 295.72 373.522 295.464C373.794 295.208 374.106 295.08 374.458 295.08C374.826 295.08 375.138 295.208 375.394 295.464C375.65 295.72 375.778 296.032 375.778 296.4C375.778 296.752 375.65 297.064 375.394 297.336C375.138 297.592 374.826 297.72 374.458 297.72C374.106 297.72 373.794 297.592 373.522 297.336C373.266 297.064 373.138 296.752 373.138 296.4ZM373.498 300.96H375.418V312H373.498V300.96ZM383.645 312.24C382.621 312.24 381.709 312 380.909 311.52C380.125 311.024 379.509 310.344 379.061 309.48C378.629 308.616 378.413 307.616 378.413 306.48C378.413 305.328 378.637 304.32 379.085 303.456C379.549 302.592 380.189 301.92 381.005 301.44C381.837 300.96 382.797 300.72 383.885 300.72C384.973 300.72 385.901 300.952 386.669 301.416C387.453 301.864 388.053 302.512 388.469 303.36C388.885 304.208 389.093 305.216 389.093 306.384C389.093 306.496 389.085 306.616 389.069 306.744C389.069 306.856 389.069 306.928 389.069 306.96H379.637V305.328H387.557L386.789 306.432C386.837 306.352 386.885 306.232 386.933 306.072C386.981 305.896 387.005 305.752 387.005 305.64C387.005 304.984 386.869 304.416 386.597 303.936C386.341 303.456 385.981 303.08 385.517 302.808C385.053 302.536 384.509 302.4 383.885 302.4C383.149 302.4 382.517 302.56 381.989 302.88C381.477 303.184 381.077 303.632 380.789 304.224C380.517 304.8 380.373 305.512 380.357 306.36C380.357 307.224 380.493 307.96 380.765 308.568C381.037 309.176 381.437 309.64 381.965 309.96C382.493 310.28 383.133 310.44 383.885 310.44C384.637 310.44 385.301 310.28 385.877 309.96C386.453 309.624 386.941 309.12 387.341 308.448L388.901 309.432C388.325 310.36 387.597 311.064 386.717 311.544C385.853 312.008 384.829 312.24 383.645 312.24ZM389.693 300.96H391.853L394.613 308.136L397.613 300.12L400.829 308.184L403.613 300.96H405.773L400.973 312.84L397.637 304.8L394.493 312.84L389.693 300.96ZM408.141 308.616C408.365 308.952 408.621 309.264 408.909 309.552C409.197 309.84 409.525 310.072 409.893 310.248C410.277 310.408 410.693 310.488 411.141 310.488C411.685 310.488 412.109 310.368 412.413 310.128C412.733 309.872 412.893 309.528 412.893 309.096C412.893 308.712 412.765 308.392 412.509 308.136C412.269 307.864 411.957 307.64 411.573 307.464C411.189 307.272 410.781 307.096 410.349 306.936C409.869 306.744 409.381 306.52 408.885 306.264C408.405 305.992 407.997 305.648 407.661 305.232C407.341 304.8 407.181 304.264 407.181 303.624C407.181 302.968 407.349 302.424 407.685 301.992C408.037 301.56 408.485 301.24 409.029 301.032C409.589 300.824 410.165 300.72 410.757 300.72C411.349 300.72 411.901 300.816 412.413 301.008C412.941 301.2 413.405 301.456 413.805 301.776C414.205 302.096 414.517 302.464 414.741 302.88L413.205 303.864C412.901 303.448 412.517 303.104 412.053 302.832C411.605 302.56 411.093 302.424 410.517 302.424C410.117 302.424 409.773 302.512 409.485 302.688C409.197 302.864 409.053 303.136 409.053 303.504C409.053 303.792 409.165 304.048 409.389 304.272C409.613 304.496 409.901 304.696 410.253 304.872C410.605 305.048 410.973 305.216 411.357 305.376C411.997 305.632 412.581 305.912 413.109 306.216C413.637 306.504 414.053 306.856 414.357 307.272C414.677 307.688 414.837 308.224 414.837 308.88C414.837 309.84 414.485 310.64 413.781 311.28C413.093 311.92 412.181 312.24 411.045 312.24C410.309 312.24 409.645 312.112 409.053 311.856C408.461 311.584 407.957 311.24 407.541 310.824C407.141 310.408 406.837 309.984 406.629 309.552L408.141 308.616Z" fill="#5B321D"/>
<path d="M172.734 312L183.326 300.704C183.816 300.171 184.232 299.648 184.574 299.136C184.936 298.603 185.203 298.069 185.374 297.536C185.566 296.981 185.662 296.405 185.662 295.808C185.662 295.317 185.566 294.837 185.374 294.368C185.182 293.899 184.894 293.472 184.51 293.088C184.147 292.704 183.699 292.395 183.166 292.16C182.632 291.925 182.024 291.808 181.342 291.808C180.382 291.808 179.55 292.032 178.846 292.48C178.163 292.907 177.64 293.536 177.278 294.368C176.915 295.179 176.734 296.149 176.734 297.28H174.014C174.014 295.68 174.302 294.283 174.878 293.088C175.454 291.872 176.286 290.933 177.374 290.272C178.483 289.589 179.806 289.248 181.342 289.248C182.579 289.248 183.646 289.461 184.542 289.888C185.438 290.293 186.174 290.827 186.75 291.488C187.326 292.128 187.752 292.821 188.03 293.568C188.307 294.315 188.446 295.029 188.446 295.712C188.446 296.864 188.168 298.005 187.614 299.136C187.059 300.267 186.344 301.28 185.47 302.176L178.334 309.44H188.542V312H172.734ZM193.353 310.72C193.353 310.229 193.523 309.813 193.865 309.472C194.227 309.131 194.643 308.96 195.113 308.96C195.603 308.96 196.019 309.131 196.361 309.472C196.702 309.813 196.873 310.229 196.873 310.72C196.873 311.189 196.702 311.605 196.361 311.968C196.019 312.309 195.603 312.48 195.113 312.48C194.643 312.48 194.227 312.309 193.865 311.968C193.523 311.605 193.353 311.189 193.353 310.72Z" fill="black"/>
<rect x="141" y="361" width="412" height="66" rx="20" fill="white" fill-opacity="0.48"/>
<path d="M226.92 387.2H228.96V404H226.92V387.2ZM228.048 389.12V387.2H231.48C232.568 387.2 233.536 387.408 234.384 387.824C235.248 388.224 235.928 388.8 236.424 389.552C236.936 390.304 237.192 391.2 237.192 392.24C237.192 393.264 236.936 394.16 236.424 394.928C235.928 395.68 235.248 396.264 234.384 396.68C233.536 397.08 232.568 397.28 231.48 397.28H228.048V395.36H231.48C232.568 395.36 233.448 395.096 234.12 394.568C234.808 394.04 235.152 393.264 235.152 392.24C235.152 391.2 234.808 390.424 234.12 389.912C233.448 389.384 232.568 389.12 231.48 389.12H228.048ZM241.868 385.28V404H239.948V385.28H241.868ZM247.028 397.28C247.028 396.368 246.828 395.68 246.428 395.216C246.044 394.752 245.46 394.52 244.676 394.52C244.116 394.52 243.62 394.64 243.188 394.88C242.772 395.12 242.444 395.448 242.204 395.864C241.98 396.28 241.868 396.752 241.868 397.28H241.244C241.244 396.4 241.412 395.624 241.748 394.952C242.084 394.264 242.54 393.72 243.116 393.32C243.708 392.92 244.388 392.72 245.156 392.72C245.924 392.72 246.588 392.88 247.148 393.2C247.724 393.52 248.164 394 248.468 394.64C248.788 395.28 248.948 396.08 248.948 397.04V404H247.028V397.28ZM253.422 400.592C253.422 401.008 253.518 401.368 253.71 401.672C253.918 401.976 254.198 402.208 254.55 402.368C254.918 402.512 255.334 402.584 255.798 402.584C256.39 402.584 256.918 402.464 257.382 402.224C257.862 401.984 258.238 401.648 258.51 401.216C258.798 400.768 258.942 400.256 258.942 399.68L259.326 401.12C259.326 401.824 259.11 402.408 258.678 402.872C258.262 403.336 257.742 403.68 257.118 403.904C256.51 404.128 255.902 404.24 255.294 404.24C254.622 404.24 253.99 404.104 253.398 403.832C252.822 403.544 252.358 403.136 252.006 402.608C251.654 402.08 251.478 401.44 251.478 400.688C251.478 399.616 251.854 398.76 252.606 398.12C253.374 397.464 254.438 397.136 255.798 397.136C256.598 397.136 257.262 397.232 257.79 397.424C258.334 397.6 258.766 397.808 259.086 398.048C259.406 398.272 259.622 398.456 259.734 398.6V399.728C259.174 399.344 258.598 399.072 258.006 398.912C257.414 398.736 256.782 398.648 256.11 398.648C255.486 398.648 254.974 398.728 254.574 398.888C254.19 399.048 253.902 399.272 253.71 399.56C253.518 399.848 253.422 400.192 253.422 400.592ZM253.134 395.504L252.198 394.088C252.614 393.784 253.182 393.48 253.902 393.176C254.638 392.872 255.518 392.72 256.542 392.72C257.406 392.72 258.158 392.856 258.798 393.128C259.454 393.384 259.958 393.76 260.31 394.256C260.678 394.752 260.862 395.36 260.862 396.08V404H258.942V396.344C258.942 395.96 258.878 395.648 258.75 395.408C258.622 395.152 258.438 394.952 258.198 394.808C257.974 394.664 257.71 394.56 257.406 394.496C257.102 394.432 256.782 394.4 256.446 394.4C255.902 394.4 255.406 394.464 254.958 394.592C254.526 394.72 254.158 394.872 253.854 395.048C253.55 395.224 253.31 395.376 253.134 395.504ZM264.569 400.616C264.793 400.952 265.049 401.264 265.337 401.552C265.625 401.84 265.953 402.072 266.321 402.248C266.705 402.408 267.121 402.488 267.569 402.488C268.113 402.488 268.537 402.368 268.841 402.128C269.161 401.872 269.321 401.528 269.321 401.096C269.321 400.712 269.193 400.392 268.937 400.136C268.697 399.864 268.385 399.64 268.001 399.464C267.617 399.272 267.209 399.096 266.777 398.936C266.297 398.744 265.809 398.52 265.312 398.264C264.833 397.992 264.425 397.648 264.089 397.232C263.769 396.8 263.609 396.264 263.609 395.624C263.609 394.968 263.777 394.424 264.113 393.992C264.465 393.56 264.913 393.24 265.457 393.032C266.017 392.824 266.593 392.72 267.185 392.72C267.777 392.72 268.329 392.816 268.841 393.008C269.369 393.2 269.833 393.456 270.233 393.776C270.633 394.096 270.945 394.464 271.169 394.88L269.633 395.864C269.329 395.448 268.945 395.104 268.48 394.832C268.033 394.56 267.521 394.424 266.945 394.424C266.545 394.424 266.201 394.512 265.913 394.688C265.625 394.864 265.48 395.136 265.48 395.504C265.48 395.792 265.593 396.048 265.817 396.272C266.041 396.496 266.329 396.696 266.681 396.872C267.033 397.048 267.401 397.216 267.785 397.376C268.425 397.632 269.009 397.912 269.537 398.216C270.065 398.504 270.481 398.856 270.785 399.272C271.105 399.688 271.265 400.224 271.265 400.88C271.265 401.84 270.913 402.64 270.209 403.28C269.521 403.92 268.609 404.24 267.473 404.24C266.737 404.24 266.073 404.112 265.48 403.856C264.889 403.584 264.385 403.24 263.969 402.824C263.569 402.408 263.265 401.984 263.057 401.552L264.569 400.616ZM278.064 404.24C277.04 404.24 276.128 404 275.328 403.52C274.544 403.024 273.928 402.344 273.48 401.48C273.048 400.616 272.832 399.616 272.832 398.48C272.832 397.328 273.056 396.32 273.504 395.456C273.968 394.592 274.608 393.92 275.424 393.44C276.256 392.96 277.216 392.72 278.304 392.72C279.392 392.72 280.32 392.952 281.088 393.416C281.872 393.864 282.472 394.512 282.888 395.36C283.304 396.208 283.512 397.216 283.512 398.384C283.512 398.496 283.504 398.616 283.488 398.744C283.488 398.856 283.488 398.928 283.488 398.96H274.056V397.328H281.976L281.208 398.432C281.256 398.352 281.304 398.232 281.352 398.072C281.4 397.896 281.424 397.752 281.424 397.64C281.424 396.984 281.288 396.416 281.016 395.936C280.76 395.456 280.4 395.08 279.936 394.808C279.472 394.536 278.928 394.4 278.304 394.4C277.568 394.4 276.936 394.56 276.408 394.88C275.896 395.184 275.496 395.632 275.208 396.224C274.936 396.8 274.792 397.512 274.776 398.36C274.776 399.224 274.912 399.96 275.184 400.568C275.456 401.176 275.856 401.64 276.384 401.96C276.912 402.28 277.552 402.44 278.304 402.44C279.056 402.44 279.72 402.28 280.296 401.96C280.872 401.624 281.36 401.12 281.76 400.448L283.32 401.432C282.744 402.36 282.016 403.064 281.136 403.544C280.272 404.008 279.248 404.24 278.064 404.24ZM294.203 400.592C294.203 401.008 294.299 401.368 294.491 401.672C294.699 401.976 294.979 402.208 295.331 402.368C295.699 402.512 296.115 402.584 296.579 402.584C297.171 402.584 297.699 402.464 298.163 402.224C298.643 401.984 299.019 401.648 299.291 401.216C299.579 400.768 299.723 400.256 299.723 399.68L300.107 401.12C300.107 401.824 299.891 402.408 299.459 402.872C299.043 403.336 298.523 403.68 297.899 403.904C297.291 404.128 296.683 404.24 296.075 404.24C295.403 404.24 294.771 404.104 294.179 403.832C293.603 403.544 293.139 403.136 292.787 402.608C292.435 402.08 292.259 401.44 292.259 400.688C292.259 399.616 292.635 398.76 293.387 398.12C294.155 397.464 295.219 397.136 296.579 397.136C297.379 397.136 298.043 397.232 298.571 397.424C299.115 397.6 299.547 397.808 299.867 398.048C300.187 398.272 300.403 398.456 300.515 398.6V399.728C299.955 399.344 299.379 399.072 298.787 398.912C298.195 398.736 297.563 398.648 296.891 398.648C296.267 398.648 295.755 398.728 295.355 398.888C294.971 399.048 294.683 399.272 294.491 399.56C294.299 399.848 294.203 400.192 294.203 400.592ZM293.915 395.504L292.979 394.088C293.395 393.784 293.963 393.48 294.683 393.176C295.419 392.872 296.299 392.72 297.323 392.72C298.187 392.72 298.939 392.856 299.579 393.128C300.235 393.384 300.739 393.76 301.091 394.256C301.459 394.752 301.643 395.36 301.643 396.08V404H299.723V396.344C299.723 395.96 299.659 395.648 299.531 395.408C299.403 395.152 299.219 394.952 298.979 394.808C298.755 394.664 298.491 394.56 298.187 394.496C297.883 394.432 297.563 394.4 297.227 394.4C296.683 394.4 296.187 394.464 295.739 394.592C295.307 394.72 294.939 394.872 294.635 395.048C294.331 395.224 294.091 395.376 293.915 395.504ZM311.974 397.28C311.974 396.368 311.774 395.68 311.374 395.216C310.974 394.752 310.39 394.52 309.622 394.52C309.062 394.52 308.566 394.64 308.134 394.88C307.718 395.104 307.39 395.424 307.15 395.84C306.926 396.256 306.814 396.736 306.814 397.28V404H304.894V392.96H306.814V394.688C307.182 394.016 307.638 393.52 308.182 393.2C308.742 392.88 309.382 392.72 310.102 392.72C311.27 392.72 312.19 393.112 312.862 393.896C313.55 394.664 313.894 395.712 313.894 397.04V404H311.974V397.28ZM318.367 400.592C318.367 401.008 318.463 401.368 318.655 401.672C318.863 401.976 319.143 402.208 319.495 402.368C319.863 402.512 320.279 402.584 320.743 402.584C321.335 402.584 321.863 402.464 322.327 402.224C322.807 401.984 323.183 401.648 323.455 401.216C323.743 400.768 323.887 400.256 323.887 399.68L324.271 401.12C324.271 401.824 324.055 402.408 323.623 402.872C323.207 403.336 322.687 403.68 322.063 403.904C321.455 404.128 320.847 404.24 320.239 404.24C319.567 404.24 318.935 404.104 318.343 403.832C317.767 403.544 317.303 403.136 316.951 402.608C316.599 402.08 316.423 401.44 316.423 400.688C316.423 399.616 316.799 398.76 317.551 398.12C318.319 397.464 319.383 397.136 320.743 397.136C321.543 397.136 322.207 397.232 322.735 397.424C323.279 397.6 323.711 397.808 324.031 398.048C324.351 398.272 324.567 398.456 324.679 398.6V399.728C324.119 399.344 323.543 399.072 322.951 398.912C322.359 398.736 321.727 398.648 321.055 398.648C320.431 398.648 319.919 398.728 319.519 398.888C319.135 399.048 318.847 399.272 318.655 399.56C318.463 399.848 318.367 400.192 318.367 400.592ZM318.079 395.504L317.143 394.088C317.559 393.784 318.127 393.48 318.847 393.176C319.583 392.872 320.463 392.72 321.487 392.72C322.351 392.72 323.103 392.856 323.743 393.128C324.399 393.384 324.903 393.76 325.255 394.256C325.623 394.752 325.807 395.36 325.807 396.08V404H323.887V396.344C323.887 395.96 323.823 395.648 323.695 395.408C323.567 395.152 323.383 394.952 323.143 394.808C322.919 394.664 322.655 394.56 322.351 394.496C322.047 394.432 321.727 394.4 321.391 394.4C320.847 394.4 320.351 394.464 319.903 394.592C319.471 394.72 319.103 394.872 318.799 395.048C318.495 395.224 318.255 395.376 318.079 395.504ZM329.058 385.28H330.978V404H329.058V385.28ZM343.349 392.96L336.149 409.28H333.989L337.013 402.44L332.789 392.96H335.069L338.573 401.6L337.781 401.504L341.189 392.96H343.349ZM345.615 400.616C345.839 400.952 346.095 401.264 346.383 401.552C346.671 401.84 346.999 402.072 347.367 402.248C347.751 402.408 348.167 402.488 348.615 402.488C349.159 402.488 349.583 402.368 349.887 402.128C350.207 401.872 350.367 401.528 350.367 401.096C350.367 400.712 350.239 400.392 349.983 400.136C349.743 399.864 349.431 399.64 349.047 399.464C348.663 399.272 348.255 399.096 347.823 398.936C347.343 398.744 346.855 398.52 346.359 398.264C345.879 397.992 345.471 397.648 345.135 397.232C344.815 396.8 344.655 396.264 344.655 395.624C344.655 394.968 344.823 394.424 345.159 393.992C345.511 393.56 345.959 393.24 346.503 393.032C347.063 392.824 347.639 392.72 348.231 392.72C348.823 392.72 349.375 392.816 349.887 393.008C350.415 393.2 350.879 393.456 351.279 393.776C351.679 394.096 351.991 394.464 352.215 394.88L350.679 395.864C350.375 395.448 349.991 395.104 349.527 394.832C349.079 394.56 348.567 394.424 347.991 394.424C347.591 394.424 347.247 394.512 346.959 394.688C346.671 394.864 346.527 395.136 346.527 395.504C346.527 395.792 346.639 396.048 346.863 396.272C347.087 396.496 347.375 396.696 347.727 396.872C348.079 397.048 348.447 397.216 348.831 397.376C349.471 397.632 350.055 397.912 350.583 398.216C351.111 398.504 351.527 398.856 351.831 399.272C352.151 399.688 352.311 400.224 352.311 400.88C352.311 401.84 351.959 402.64 351.255 403.28C350.567 403.92 349.655 404.24 348.519 404.24C347.783 404.24 347.119 404.112 346.527 403.856C345.935 403.584 345.431 403.24 345.015 402.824C344.615 402.408 344.311 401.984 344.103 401.552L345.615 400.616ZM359.111 404.24C358.087 404.24 357.175 404 356.375 403.52C355.591 403.024 354.975 402.344 354.527 401.48C354.095 400.616 353.879 399.616 353.879 398.48C353.879 397.328 354.103 396.32 354.551 395.456C355.015 394.592 355.655 393.92 356.471 393.44C357.303 392.96 358.263 392.72 359.351 392.72C360.439 392.72 361.367 392.952 362.135 393.416C362.919 393.864 363.519 394.512 363.935 395.36C364.351 396.208 364.559 397.216 364.559 398.384C364.559 398.496 364.551 398.616 364.535 398.744C364.535 398.856 364.535 398.928 364.535 398.96H355.103V397.328H363.023L362.255 398.432C362.303 398.352 362.351 398.232 362.399 398.072C362.447 397.896 362.471 397.752 362.471 397.64C362.471 396.984 362.335 396.416 362.063 395.936C361.807 395.456 361.447 395.08 360.983 394.808C360.519 394.536 359.975 394.4 359.351 394.4C358.615 394.4 357.983 394.56 357.455 394.88C356.943 395.184 356.543 395.632 356.255 396.224C355.983 396.8 355.839 397.512 355.823 398.36C355.823 399.224 355.959 399.96 356.231 400.568C356.503 401.176 356.903 401.64 357.431 401.96C357.959 402.28 358.599 402.44 359.351 402.44C360.103 402.44 360.767 402.28 361.343 401.96C361.919 401.624 362.407 401.12 362.807 400.448L364.367 401.432C363.791 402.36 363.063 403.064 362.183 403.544C361.319 404.008 360.295 404.24 359.111 404.24ZM367.647 400.616C367.871 400.952 368.127 401.264 368.415 401.552C368.703 401.84 369.031 402.072 369.399 402.248C369.783 402.408 370.199 402.488 370.647 402.488C371.191 402.488 371.615 402.368 371.919 402.128C372.239 401.872 372.399 401.528 372.399 401.096C372.399 400.712 372.271 400.392 372.015 400.136C371.775 399.864 371.463 399.64 371.079 399.464C370.695 399.272 370.287 399.096 369.855 398.936C369.375 398.744 368.887 398.52 368.391 398.264C367.911 397.992 367.503 397.648 367.167 397.232C366.847 396.8 366.687 396.264 366.687 395.624C366.687 394.968 366.855 394.424 367.191 393.992C367.543 393.56 367.991 393.24 368.535 393.032C369.095 392.824 369.671 392.72 370.263 392.72C370.855 392.72 371.407 392.816 371.919 393.008C372.447 393.2 372.911 393.456 373.311 393.776C373.711 394.096 374.023 394.464 374.247 394.88L372.711 395.864C372.407 395.448 372.023 395.104 371.559 394.832C371.111 394.56 370.599 394.424 370.023 394.424C369.623 394.424 369.279 394.512 368.991 394.688C368.703 394.864 368.559 395.136 368.559 395.504C368.559 395.792 368.671 396.048 368.895 396.272C369.119 396.496 369.407 396.696 369.759 396.872C370.111 397.048 370.479 397.216 370.863 397.376C371.503 397.632 372.087 397.912 372.615 398.216C373.143 398.504 373.559 398.856 373.863 399.272C374.183 399.688 374.343 400.224 374.343 400.88C374.343 401.84 373.991 402.64 373.287 403.28C372.599 403.92 371.687 404.24 370.551 404.24C369.815 404.24 369.151 404.112 368.559 403.856C367.967 403.584 367.463 403.24 367.047 402.824C366.647 402.408 366.343 401.984 366.135 401.552L367.647 400.616ZM392.346 385.28H394.266V404H392.346V385.28ZM383.106 398.48C383.106 397.28 383.354 396.256 383.85 395.408C384.346 394.544 385.01 393.88 385.842 393.416C386.674 392.952 387.586 392.72 388.578 392.72C389.506 392.72 390.314 392.952 391.002 393.416C391.69 393.88 392.226 394.544 392.61 395.408C393.01 396.256 393.21 397.28 393.21 398.48C393.21 399.664 393.01 400.688 392.61 401.552C392.226 402.416 391.69 403.08 391.002 403.544C390.314 404.008 389.506 404.24 388.578 404.24C387.586 404.24 386.674 404.008 385.842 403.544C385.01 403.08 384.346 402.416 383.85 401.552C383.354 400.688 383.106 399.664 383.106 398.48ZM385.05 398.48C385.05 399.328 385.218 400.048 385.554 400.64C385.906 401.232 386.37 401.68 386.946 401.984C387.522 402.288 388.146 402.44 388.818 402.44C389.378 402.44 389.93 402.288 390.474 401.984C391.018 401.68 391.466 401.232 391.818 400.64C392.17 400.048 392.346 399.328 392.346 398.48C392.346 397.632 392.17 396.912 391.818 396.32C391.466 395.728 391.018 395.28 390.474 394.976C389.93 394.672 389.378 394.52 388.818 394.52C388.146 394.52 387.522 394.672 386.946 394.976C386.37 395.28 385.906 395.728 385.554 396.32C385.218 396.912 385.05 397.632 385.05 398.48ZM402.025 404.24C401.001 404.24 400.089 404 399.289 403.52C398.505 403.024 397.889 402.344 397.441 401.48C397.009 400.616 396.793 399.616 396.793 398.48C396.793 397.328 397.017 396.32 397.465 395.456C397.929 394.592 398.569 393.92 399.385 393.44C400.217 392.96 401.177 392.72 402.265 392.72C403.353 392.72 404.281 392.952 405.049 393.416C405.833 393.864 406.433 394.512 406.849 395.36C407.265 396.208 407.473 397.216 407.473 398.384C407.473 398.496 407.465 398.616 407.449 398.744C407.449 398.856 407.449 398.928 407.449 398.96H398.017V397.328H405.937L405.169 398.432C405.217 398.352 405.265 398.232 405.313 398.072C405.361 397.896 405.385 397.752 405.385 397.64C405.385 396.984 405.249 396.416 404.977 395.936C404.721 395.456 404.361 395.08 403.897 394.808C403.433 394.536 402.889 394.4 402.265 394.4C401.529 394.4 400.897 394.56 400.369 394.88C399.857 395.184 399.457 395.632 399.169 396.224C398.897 396.8 398.753 397.512 398.737 398.36C398.737 399.224 398.873 399.96 399.145 400.568C399.417 401.176 399.817 401.64 400.345 401.96C400.873 402.28 401.513 402.44 402.265 402.44C403.017 402.44 403.681 402.28 404.257 401.96C404.833 401.624 405.321 401.12 405.721 400.448L407.281 401.432C406.705 402.36 405.977 403.064 405.097 403.544C404.233 404.008 403.209 404.24 402.025 404.24ZM410.561 400.616C410.785 400.952 411.041 401.264 411.329 401.552C411.617 401.84 411.945 402.072 412.313 402.248C412.697 402.408 413.113 402.488 413.561 402.488C414.105 402.488 414.529 402.368 414.833 402.128C415.153 401.872 415.313 401.528 415.313 401.096C415.313 400.712 415.185 400.392 414.929 400.136C414.689 399.864 414.377 399.64 413.993 399.464C413.609 399.272 413.201 399.096 412.769 398.936C412.289 398.744 411.801 398.52 411.305 398.264C410.825 397.992 410.417 397.648 410.081 397.232C409.761 396.8 409.601 396.264 409.601 395.624C409.601 394.968 409.769 394.424 410.105 393.992C410.457 393.56 410.905 393.24 411.449 393.032C412.009 392.824 412.585 392.72 413.177 392.72C413.769 392.72 414.321 392.816 414.833 393.008C415.361 393.2 415.825 393.456 416.225 393.776C416.625 394.096 416.937 394.464 417.161 394.88L415.625 395.864C415.321 395.448 414.937 395.104 414.473 394.832C414.025 394.56 413.513 394.424 412.937 394.424C412.537 394.424 412.193 394.512 411.905 394.688C411.617 394.864 411.473 395.136 411.473 395.504C411.473 395.792 411.585 396.048 411.809 396.272C412.033 396.496 412.321 396.696 412.673 396.872C413.025 397.048 413.393 397.216 413.777 397.376C414.417 397.632 415.001 397.912 415.529 398.216C416.057 398.504 416.473 398.856 416.777 399.272C417.097 399.688 417.257 400.224 417.257 400.88C417.257 401.84 416.905 402.64 416.201 403.28C415.513 403.92 414.601 404.24 413.465 404.24C412.729 404.24 412.065 404.112 411.473 403.856C410.881 403.584 410.377 403.24 409.961 402.824C409.561 402.408 409.257 401.984 409.049 401.552L410.561 400.616ZM426.98 388.4C426.98 388.032 427.108 387.72 427.364 387.464C427.636 387.208 427.948 387.08 428.3 387.08C428.668 387.08 428.98 387.208 429.236 387.464C429.492 387.72 429.62 388.032 429.62 388.4C429.62 388.752 429.492 389.064 429.236 389.336C428.98 389.592 428.668 389.72 428.3 389.72C427.948 389.72 427.636 389.592 427.364 389.336C427.108 389.064 426.98 388.752 426.98 388.4ZM427.34 392.96H429.26V404H427.34V392.96ZM440.294 397.28C440.294 396.368 440.094 395.68 439.694 395.216C439.294 394.752 438.71 394.52 437.942 394.52C437.382 394.52 436.886 394.64 436.454 394.88C436.038 395.104 435.71 395.424 435.47 395.84C435.246 396.256 435.134 396.736 435.134 397.28V404H433.214V392.96H435.134V394.688C435.502 394.016 435.958 393.52 436.502 393.2C437.062 392.88 437.702 392.72 438.422 392.72C439.59 392.72 440.51 393.112 441.182 393.896C441.87 394.664 442.214 395.712 442.214 397.04V404H440.294V397.28ZM444.143 392.96H449.663V394.76H444.143V392.96ZM445.943 389.12H447.863V404H445.943V389.12ZM455.861 404.24C454.837 404.24 453.925 404 453.125 403.52C452.341 403.024 451.725 402.344 451.277 401.48C450.845 400.616 450.629 399.616 450.629 398.48C450.629 397.328 450.853 396.32 451.301 395.456C451.765 394.592 452.405 393.92 453.221 393.44C454.053 392.96 455.013 392.72 456.101 392.72C457.189 392.72 458.117 392.952 458.885 393.416C459.669 393.864 460.269 394.512 460.685 395.36C461.101 396.208 461.309 397.216 461.309 398.384C461.309 398.496 461.301 398.616 461.285 398.744C461.285 398.856 461.285 398.928 461.285 398.96H451.853V397.328H459.773L459.005 398.432C459.053 398.352 459.101 398.232 459.149 398.072C459.197 397.896 459.221 397.752 459.221 397.64C459.221 396.984 459.085 396.416 458.813 395.936C458.557 395.456 458.197 395.08 457.733 394.808C457.269 394.536 456.725 394.4 456.101 394.4C455.365 394.4 454.733 394.56 454.205 394.88C453.693 395.184 453.293 395.632 453.005 396.224C452.733 396.8 452.589 397.512 452.573 398.36C452.573 399.224 452.709 399.96 452.981 400.568C453.253 401.176 453.653 401.64 454.181 401.96C454.709 402.28 455.349 402.44 456.101 402.44C456.853 402.44 457.517 402.28 458.093 401.96C458.669 401.624 459.157 401.12 459.557 400.448L461.117 401.432C460.541 402.36 459.813 403.064 458.933 403.544C458.069 404.008 457.045 404.24 455.861 404.24ZM465.861 392.96V404H463.941V392.96H465.861ZM469.197 395.072C468.941 394.88 468.709 394.744 468.501 394.664C468.293 394.568 468.029 394.52 467.709 394.52C467.229 394.52 466.853 394.64 466.581 394.88C466.309 395.12 466.117 395.448 466.005 395.864C465.909 396.28 465.861 396.752 465.861 397.28H464.997C464.997 396.4 465.149 395.624 465.453 394.952C465.773 394.264 466.181 393.72 466.677 393.32C467.173 392.92 467.677 392.72 468.189 392.72C468.589 392.72 468.957 392.776 469.293 392.888C469.645 392.984 469.965 393.184 470.253 393.488L469.197 395.072ZM471.094 392.96H473.254L476.374 400.76L479.494 392.96H481.654L476.374 404.84L471.094 392.96ZM483.464 388.4C483.464 388.032 483.592 387.72 483.848 387.464C484.12 387.208 484.432 387.08 484.784 387.08C485.152 387.08 485.464 387.208 485.72 387.464C485.976 387.72 486.104 388.032 486.104 388.4C486.104 388.752 485.976 389.064 485.72 389.336C485.464 389.592 485.152 389.72 484.784 389.72C484.432 389.72 484.12 389.592 483.848 389.336C483.592 389.064 483.464 388.752 483.464 388.4ZM483.824 392.96H485.744V404H483.824V392.96ZM493.97 404.24C492.946 404.24 492.034 404 491.234 403.52C490.45 403.024 489.834 402.344 489.386 401.48C488.954 400.616 488.738 399.616 488.738 398.48C488.738 397.328 488.962 396.32 489.41 395.456C489.874 394.592 490.514 393.92 491.33 393.44C492.162 392.96 493.122 392.72 494.21 392.72C495.298 392.72 496.226 392.952 496.994 393.416C497.778 393.864 498.378 394.512 498.794 395.36C499.21 396.208 499.418 397.216 499.418 398.384C499.418 398.496 499.41 398.616 499.394 398.744C499.394 398.856 499.394 398.928 499.394 398.96H489.962V397.328H497.882L497.114 398.432C497.162 398.352 497.21 398.232 497.258 398.072C497.306 397.896 497.33 397.752 497.33 397.64C497.33 396.984 497.194 396.416 496.922 395.936C496.666 395.456 496.306 395.08 495.842 394.808C495.378 394.536 494.834 394.4 494.21 394.4C493.474 394.4 492.842 394.56 492.314 394.88C491.802 395.184 491.402 395.632 491.114 396.224C490.842 396.8 490.698 397.512 490.682 398.36C490.682 399.224 490.818 399.96 491.09 400.568C491.362 401.176 491.762 401.64 492.29 401.96C492.818 402.28 493.458 402.44 494.21 402.44C494.962 402.44 495.626 402.28 496.202 401.96C496.778 401.624 497.266 401.12 497.666 400.448L499.226 401.432C498.65 402.36 497.922 403.064 497.042 403.544C496.178 404.008 495.154 404.24 493.97 404.24ZM500.018 392.96H502.178L504.938 400.136L507.938 392.12L511.154 400.184L513.938 392.96H516.098L511.298 404.84L507.962 396.8L504.818 404.84L500.018 392.96ZM518.467 400.616C518.691 400.952 518.947 401.264 519.235 401.552C519.523 401.84 519.851 402.072 520.219 402.248C520.603 402.408 521.019 402.488 521.467 402.488C522.011 402.488 522.435 402.368 522.739 402.128C523.059 401.872 523.219 401.528 523.219 401.096C523.219 400.712 523.091 400.392 522.835 400.136C522.595 399.864 522.283 399.64 521.899 399.464C521.515 399.272 521.107 399.096 520.675 398.936C520.195 398.744 519.707 398.52 519.211 398.264C518.731 397.992 518.323 397.648 517.987 397.232C517.667 396.8 517.507 396.264 517.507 395.624C517.507 394.968 517.675 394.424 518.011 393.992C518.363 393.56 518.811 393.24 519.355 393.032C519.915 392.824 520.491 392.72 521.083 392.72C521.675 392.72 522.227 392.816 522.739 393.008C523.267 393.2 523.731 393.456 524.131 393.776C524.531 394.096 524.843 394.464 525.067 394.88L523.531 395.864C523.227 395.448 522.843 395.104 522.379 394.832C521.931 394.56 521.419 394.424 520.843 394.424C520.443 394.424 520.099 394.512 519.811 394.688C519.523 394.864 519.379 395.136 519.379 395.504C519.379 395.792 519.491 396.048 519.715 396.272C519.939 396.496 520.227 396.696 520.579 396.872C520.931 397.048 521.299 397.216 521.683 397.376C522.323 397.632 522.907 397.912 523.435 398.216C523.963 398.504 524.379 398.856 524.683 399.272C525.003 399.688 525.163 400.224 525.163 400.88C525.163 401.84 524.811 402.64 524.107 403.28C523.419 403.92 522.507 404.24 521.371 404.24C520.635 404.24 519.971 404.112 519.379 403.856C518.787 403.584 518.283 403.24 517.867 402.824C517.467 402.408 517.163 401.984 516.955 401.552L518.467 400.616Z" fill="#5B321D" fill-opacity="0.78"/>
<path d="M177.799 392.96V391.2C178.524 391.2 179.164 391.104 179.719 390.912C180.274 390.699 180.743 390.421 181.127 390.08C181.511 389.717 181.799 389.301 181.991 388.832C182.204 388.363 182.311 387.861 182.311 387.328C182.311 386.624 182.183 386.005 181.927 385.472C181.671 384.917 181.287 384.491 180.775 384.192C180.284 383.893 179.666 383.744 178.919 383.744C177.874 383.744 176.988 384.075 176.263 384.736C175.538 385.376 175.175 386.187 175.175 387.168H172.583C172.583 385.995 172.85 384.971 173.383 384.096C173.938 383.221 174.684 382.539 175.623 382.048C176.583 381.536 177.671 381.28 178.887 381.28C180.167 381.28 181.266 381.557 182.183 382.112C183.122 382.667 183.836 383.392 184.327 384.288C184.839 385.184 185.095 386.165 185.095 387.232C185.095 388.277 184.786 389.237 184.167 390.112C183.548 390.987 182.695 391.68 181.607 392.192C180.519 392.704 179.25 392.96 177.799 392.96ZM178.759 404.32C177.671 404.32 176.69 404.16 175.815 403.84C174.94 403.52 174.194 403.083 173.575 402.528C172.956 401.952 172.476 401.291 172.135 400.544C171.794 399.776 171.623 398.955 171.623 398.08H174.375C174.375 398.784 174.556 399.413 174.919 399.968C175.303 400.523 175.826 400.96 176.487 401.28C177.148 401.6 177.906 401.76 178.759 401.76C179.612 401.76 180.348 401.6 180.967 401.28C181.607 400.939 182.098 400.469 182.439 399.872C182.78 399.275 182.951 398.571 182.951 397.76C182.951 397.077 182.812 396.48 182.535 395.968C182.279 395.435 181.916 394.997 181.447 394.656C180.978 394.293 180.434 394.027 179.815 393.856C179.196 393.685 178.524 393.6 177.799 393.6V391.84C178.887 391.84 179.9 391.957 180.839 392.192C181.799 392.427 182.642 392.8 183.367 393.312C184.114 393.803 184.69 394.443 185.095 395.232C185.522 396.021 185.735 396.971 185.735 398.08C185.735 399.339 185.426 400.437 184.807 401.376C184.21 402.315 183.388 403.04 182.343 403.552C181.298 404.064 180.103 404.32 178.759 404.32ZM189.743 402.72C189.743 402.229 189.914 401.813 190.255 401.472C190.618 401.131 191.034 400.96 191.503 400.96C191.994 400.96 192.41 401.131 192.751 401.472C193.092 401.813 193.263 402.229 193.263 402.72C193.263 403.189 193.092 403.605 192.751 403.968C192.41 404.309 191.994 404.48 191.503 404.48C191.034 404.48 190.618 404.309 190.255 403.968C189.914 403.605 189.743 403.189 189.743 402.72Z" fill="black" fill-opacity="0.68"/>
<rect x="144" y="447" width="413" height="66" rx="20" fill="white" fill-opacity="0.48"/>
<path d="M228.938 474.2H230.978V491H228.938V474.2ZM230.066 476.12V474.2H233.498C234.586 474.2 235.554 474.408 236.402 474.824C237.266 475.224 237.946 475.8 238.442 476.552C238.954 477.304 239.21 478.2 239.21 479.24C239.21 480.264 238.954 481.16 238.442 481.928C237.946 482.68 237.266 483.264 236.402 483.68C235.554 484.08 234.586 484.28 233.498 484.28H230.066V482.36H233.498C234.586 482.36 235.466 482.096 236.138 481.568C236.826 481.04 237.17 480.264 237.17 479.24C237.17 478.2 236.826 477.424 236.138 476.912C235.466 476.384 234.586 476.12 233.498 476.12H230.066ZM243.887 472.28V491H241.967V472.28H243.887ZM249.047 484.28C249.047 483.368 248.847 482.68 248.447 482.216C248.063 481.752 247.479 481.52 246.695 481.52C246.135 481.52 245.639 481.64 245.207 481.88C244.791 482.12 244.463 482.448 244.223 482.864C243.999 483.28 243.887 483.752 243.887 484.28H243.263C243.263 483.4 243.431 482.624 243.767 481.952C244.103 481.264 244.559 480.72 245.135 480.32C245.727 479.92 246.407 479.72 247.175 479.72C247.943 479.72 248.607 479.88 249.167 480.2C249.743 480.52 250.183 481 250.487 481.64C250.807 482.28 250.967 483.08 250.967 484.04V491H249.047V484.28ZM255.44 487.592C255.44 488.008 255.536 488.368 255.728 488.672C255.936 488.976 256.216 489.208 256.568 489.368C256.936 489.512 257.352 489.584 257.816 489.584C258.408 489.584 258.936 489.464 259.4 489.224C259.88 488.984 260.256 488.648 260.528 488.216C260.816 487.768 260.96 487.256 260.96 486.68L261.344 488.12C261.344 488.824 261.128 489.408 260.696 489.872C260.28 490.336 259.76 490.68 259.136 490.904C258.528 491.128 257.92 491.24 257.312 491.24C256.64 491.24 256.008 491.104 255.416 490.832C254.84 490.544 254.376 490.136 254.024 489.608C253.672 489.08 253.496 488.44 253.496 487.688C253.496 486.616 253.872 485.76 254.624 485.12C255.392 484.464 256.456 484.136 257.816 484.136C258.616 484.136 259.28 484.232 259.808 484.424C260.352 484.6 260.784 484.808 261.104 485.048C261.424 485.272 261.64 485.456 261.752 485.6V486.728C261.192 486.344 260.616 486.072 260.024 485.912C259.432 485.736 258.8 485.648 258.128 485.648C257.504 485.648 256.992 485.728 256.592 485.888C256.208 486.048 255.92 486.272 255.728 486.56C255.536 486.848 255.44 487.192 255.44 487.592ZM255.152 482.504L254.216 481.088C254.632 480.784 255.2 480.48 255.92 480.176C256.656 479.872 257.536 479.72 258.56 479.72C259.424 479.72 260.176 479.856 260.816 480.128C261.472 480.384 261.976 480.76 262.328 481.256C262.696 481.752 262.88 482.36 262.88 483.08V491H260.96V483.344C260.96 482.96 260.896 482.648 260.768 482.408C260.64 482.152 260.456 481.952 260.216 481.808C259.992 481.664 259.728 481.56 259.424 481.496C259.12 481.432 258.8 481.4 258.464 481.4C257.92 481.4 257.424 481.464 256.976 481.592C256.544 481.72 256.176 481.872 255.872 482.048C255.568 482.224 255.328 482.376 255.152 482.504ZM266.587 487.616C266.811 487.952 267.067 488.264 267.355 488.552C267.643 488.84 267.971 489.072 268.339 489.248C268.723 489.408 269.139 489.488 269.587 489.488C270.131 489.488 270.555 489.368 270.859 489.128C271.179 488.872 271.339 488.528 271.339 488.096C271.339 487.712 271.211 487.392 270.955 487.136C270.715 486.864 270.403 486.64 270.019 486.464C269.635 486.272 269.227 486.096 268.795 485.936C268.315 485.744 267.827 485.52 267.331 485.264C266.851 484.992 266.443 484.648 266.107 484.232C265.787 483.8 265.627 483.264 265.627 482.624C265.627 481.968 265.795 481.424 266.131 480.992C266.483 480.56 266.931 480.24 267.475 480.032C268.035 479.824 268.611 479.72 269.203 479.72C269.795 479.72 270.347 479.816 270.859 480.008C271.387 480.2 271.851 480.456 272.251 480.776C272.651 481.096 272.963 481.464 273.187 481.88L271.651 482.864C271.347 482.448 270.963 482.104 270.499 481.832C270.051 481.56 269.539 481.424 268.963 481.424C268.563 481.424 268.219 481.512 267.931 481.688C267.643 481.864 267.499 482.136 267.499 482.504C267.499 482.792 267.611 483.048 267.835 483.272C268.059 483.496 268.347 483.696 268.699 483.872C269.051 484.048 269.419 484.216 269.803 484.376C270.443 484.632 271.027 484.912 271.555 485.216C272.083 485.504 272.499 485.856 272.803 486.272C273.123 486.688 273.283 487.224 273.283 487.88C273.283 488.84 272.931 489.64 272.227 490.28C271.539 490.92 270.627 491.24 269.491 491.24C268.755 491.24 268.091 491.112 267.499 490.856C266.907 490.584 266.403 490.24 265.987 489.824C265.587 489.408 265.283 488.984 265.075 488.552L266.587 487.616ZM280.082 491.24C279.058 491.24 278.146 491 277.346 490.52C276.562 490.024 275.946 489.344 275.498 488.48C275.066 487.616 274.85 486.616 274.85 485.48C274.85 484.328 275.074 483.32 275.522 482.456C275.986 481.592 276.626 480.92 277.442 480.44C278.274 479.96 279.234 479.72 280.322 479.72C281.41 479.72 282.338 479.952 283.106 480.416C283.89 480.864 284.49 481.512 284.906 482.36C285.322 483.208 285.53 484.216 285.53 485.384C285.53 485.496 285.522 485.616 285.506 485.744C285.506 485.856 285.506 485.928 285.506 485.96H276.074V484.328H283.994L283.226 485.432C283.274 485.352 283.322 485.232 283.37 485.072C283.418 484.896 283.442 484.752 283.442 484.64C283.442 483.984 283.306 483.416 283.034 482.936C282.778 482.456 282.418 482.08 281.954 481.808C281.49 481.536 280.946 481.4 280.322 481.4C279.586 481.4 278.954 481.56 278.426 481.88C277.914 482.184 277.514 482.632 277.226 483.224C276.954 483.8 276.81 484.512 276.794 485.36C276.794 486.224 276.93 486.96 277.202 487.568C277.474 488.176 277.874 488.64 278.402 488.96C278.93 489.28 279.57 489.44 280.322 489.44C281.074 489.44 281.738 489.28 282.314 488.96C282.89 488.624 283.378 488.12 283.778 487.448L285.338 488.432C284.762 489.36 284.034 490.064 283.154 490.544C282.29 491.008 281.266 491.24 280.082 491.24ZM303.637 472.28H305.557V491H303.637V472.28ZM294.397 485.48C294.397 484.28 294.645 483.256 295.141 482.408C295.637 481.544 296.301 480.88 297.133 480.416C297.965 479.952 298.877 479.72 299.869 479.72C300.797 479.72 301.605 479.952 302.293 480.416C302.981 480.88 303.517 481.544 303.901 482.408C304.301 483.256 304.501 484.28 304.501 485.48C304.501 486.664 304.301 487.688 303.901 488.552C303.517 489.416 302.981 490.08 302.293 490.544C301.605 491.008 300.797 491.24 299.869 491.24C298.877 491.24 297.965 491.008 297.133 490.544C296.301 490.08 295.637 489.416 295.141 488.552C294.645 487.688 294.397 486.664 294.397 485.48ZM296.341 485.48C296.341 486.328 296.509 487.048 296.845 487.64C297.197 488.232 297.661 488.68 298.237 488.984C298.813 489.288 299.437 489.44 300.109 489.44C300.669 489.44 301.221 489.288 301.765 488.984C302.309 488.68 302.757 488.232 303.109 487.64C303.461 487.048 303.637 486.328 303.637 485.48C303.637 484.632 303.461 483.912 303.109 483.32C302.757 482.728 302.309 482.28 301.765 481.976C301.221 481.672 300.669 481.52 300.109 481.52C299.437 481.52 298.813 481.672 298.237 481.976C297.661 482.28 297.197 482.728 296.845 483.32C296.509 483.912 296.341 484.632 296.341 485.48ZM313.317 491.24C312.293 491.24 311.381 491 310.581 490.52C309.797 490.024 309.181 489.344 308.733 488.48C308.301 487.616 308.085 486.616 308.085 485.48C308.085 484.328 308.309 483.32 308.757 482.456C309.221 481.592 309.861 480.92 310.677 480.44C311.509 479.96 312.469 479.72 313.557 479.72C314.645 479.72 315.573 479.952 316.341 480.416C317.125 480.864 317.725 481.512 318.141 482.36C318.557 483.208 318.765 484.216 318.765 485.384C318.765 485.496 318.757 485.616 318.741 485.744C318.741 485.856 318.741 485.928 318.741 485.96H309.309V484.328H317.229L316.461 485.432C316.509 485.352 316.557 485.232 316.605 485.072C316.653 484.896 316.677 484.752 316.677 484.64C316.677 483.984 316.541 483.416 316.269 482.936C316.013 482.456 315.653 482.08 315.189 481.808C314.725 481.536 314.181 481.4 313.557 481.4C312.821 481.4 312.189 481.56 311.661 481.88C311.149 482.184 310.749 482.632 310.461 483.224C310.189 483.8 310.045 484.512 310.029 485.36C310.029 486.224 310.165 486.96 310.437 487.568C310.709 488.176 311.109 488.64 311.637 488.96C312.165 489.28 312.805 489.44 313.557 489.44C314.309 489.44 314.973 489.28 315.549 488.96C316.125 488.624 316.613 488.12 317.013 487.448L318.573 488.432C317.997 489.36 317.269 490.064 316.389 490.544C315.525 491.008 314.501 491.24 313.317 491.24ZM330.512 479.96V491H328.592V479.96H330.512ZM333.848 482.072C333.592 481.88 333.36 481.744 333.152 481.664C332.944 481.568 332.68 481.52 332.36 481.52C331.88 481.52 331.504 481.64 331.232 481.88C330.96 482.12 330.768 482.448 330.656 482.864C330.56 483.28 330.512 483.752 330.512 484.28H329.648C329.648 483.4 329.8 482.624 330.104 481.952C330.424 481.264 330.832 480.72 331.328 480.32C331.824 479.92 332.328 479.72 332.84 479.72C333.24 479.72 333.608 479.776 333.944 479.888C334.296 479.984 334.616 480.184 334.904 480.488L333.848 482.072ZM336.731 485.96V484.328H344.099C344.035 483.752 343.875 483.248 343.619 482.816C343.379 482.368 343.035 482.024 342.587 481.784C342.155 481.528 341.619 481.4 340.979 481.4C340.339 481.4 339.755 481.536 339.227 481.808C338.699 482.08 338.275 482.472 337.955 482.984C337.651 483.48 337.499 484.072 337.499 484.76L337.451 485.48C337.451 486.328 337.595 487.048 337.883 487.64C338.171 488.232 338.579 488.68 339.107 488.984C339.635 489.288 340.259 489.44 340.979 489.44C341.523 489.44 342.003 489.36 342.419 489.2C342.851 489.024 343.235 488.792 343.571 488.504C343.907 488.2 344.195 487.848 344.435 487.448L345.995 488.432C345.627 488.992 345.219 489.488 344.771 489.92C344.323 490.336 343.779 490.664 343.139 490.904C342.499 491.128 341.699 491.24 340.739 491.24C339.747 491.24 338.851 490.992 338.051 490.496C337.267 490 336.643 489.32 336.179 488.456C335.731 487.576 335.507 486.584 335.507 485.48C335.507 485.272 335.515 485.072 335.531 484.88C335.547 484.688 335.571 484.496 335.603 484.304C335.763 483.392 336.083 482.592 336.563 481.904C337.043 481.216 337.659 480.68 338.411 480.296C339.179 479.912 340.035 479.72 340.979 479.72C342.019 479.72 342.931 479.952 343.715 480.416C344.499 480.88 345.107 481.536 345.539 482.384C345.971 483.216 346.187 484.216 346.187 485.384C346.187 485.48 346.187 485.576 346.187 485.672C346.187 485.768 346.179 485.864 346.163 485.96H336.731ZM344.819 474.44L340.499 478.04L339.419 477.32L343.019 473.48L344.819 474.44ZM349.682 487.592C349.682 488.008 349.778 488.368 349.97 488.672C350.178 488.976 350.458 489.208 350.81 489.368C351.178 489.512 351.594 489.584 352.058 489.584C352.65 489.584 353.178 489.464 353.642 489.224C354.122 488.984 354.498 488.648 354.77 488.216C355.058 487.768 355.202 487.256 355.202 486.68L355.586 488.12C355.586 488.824 355.37 489.408 354.938 489.872C354.522 490.336 354.002 490.68 353.378 490.904C352.77 491.128 352.162 491.24 351.554 491.24C350.882 491.24 350.25 491.104 349.658 490.832C349.082 490.544 348.618 490.136 348.266 489.608C347.914 489.08 347.738 488.44 347.738 487.688C347.738 486.616 348.114 485.76 348.866 485.12C349.634 484.464 350.698 484.136 352.058 484.136C352.858 484.136 353.522 484.232 354.05 484.424C354.594 484.6 355.026 484.808 355.346 485.048C355.666 485.272 355.882 485.456 355.994 485.6V486.728C355.434 486.344 354.858 486.072 354.266 485.912C353.674 485.736 353.042 485.648 352.37 485.648C351.746 485.648 351.234 485.728 350.834 485.888C350.45 486.048 350.162 486.272 349.97 486.56C349.778 486.848 349.682 487.192 349.682 487.592ZM349.394 482.504L348.458 481.088C348.874 480.784 349.442 480.48 350.162 480.176C350.898 479.872 351.778 479.72 352.802 479.72C353.666 479.72 354.418 479.856 355.058 480.128C355.714 480.384 356.218 480.76 356.57 481.256C356.938 481.752 357.122 482.36 357.122 483.08V491H355.202V483.344C355.202 482.96 355.138 482.648 355.01 482.408C354.882 482.152 354.698 481.952 354.458 481.808C354.234 481.664 353.97 481.56 353.666 481.496C353.362 481.432 353.042 481.4 352.706 481.4C352.162 481.4 351.666 481.464 351.218 481.592C350.786 481.72 350.418 481.872 350.114 482.048C349.81 482.224 349.57 482.376 349.394 482.504ZM360.373 472.28H362.293V491H360.373V472.28ZM365.904 475.4C365.904 475.032 366.032 474.72 366.288 474.464C366.56 474.208 366.872 474.08 367.224 474.08C367.592 474.08 367.904 474.208 368.16 474.464C368.416 474.72 368.544 475.032 368.544 475.4C368.544 475.752 368.416 476.064 368.16 476.336C367.904 476.592 367.592 476.72 367.224 476.72C366.872 476.72 366.56 476.592 366.288 476.336C366.032 476.064 365.904 475.752 365.904 475.4ZM366.264 479.96H368.184V491H366.264V479.96ZM372.594 487.616C372.818 487.952 373.074 488.264 373.362 488.552C373.65 488.84 373.978 489.072 374.346 489.248C374.73 489.408 375.146 489.488 375.594 489.488C376.138 489.488 376.562 489.368 376.866 489.128C377.186 488.872 377.346 488.528 377.346 488.096C377.346 487.712 377.218 487.392 376.962 487.136C376.722 486.864 376.41 486.64 376.026 486.464C375.642 486.272 375.234 486.096 374.802 485.936C374.322 485.744 373.834 485.52 373.338 485.264C372.858 484.992 372.45 484.648 372.114 484.232C371.794 483.8 371.634 483.264 371.634 482.624C371.634 481.968 371.802 481.424 372.138 480.992C372.49 480.56 372.938 480.24 373.482 480.032C374.042 479.824 374.618 479.72 375.21 479.72C375.802 479.72 376.354 479.816 376.866 480.008C377.394 480.2 377.858 480.456 378.258 480.776C378.658 481.096 378.97 481.464 379.194 481.88L377.658 482.864C377.354 482.448 376.97 482.104 376.506 481.832C376.058 481.56 375.546 481.424 374.97 481.424C374.57 481.424 374.226 481.512 373.938 481.688C373.65 481.864 373.506 482.136 373.506 482.504C373.506 482.792 373.618 483.048 373.842 483.272C374.066 483.496 374.354 483.696 374.706 483.872C375.058 484.048 375.426 484.216 375.81 484.376C376.45 484.632 377.034 484.912 377.562 485.216C378.09 485.504 378.506 485.856 378.81 486.272C379.13 486.688 379.29 487.224 379.29 487.88C379.29 488.84 378.938 489.64 378.234 490.28C377.546 490.92 376.634 491.24 375.498 491.24C374.762 491.24 374.098 491.112 373.506 490.856C372.914 490.584 372.41 490.24 371.994 489.824C371.594 489.408 371.29 488.984 371.082 488.552L372.594 487.616ZM382.682 487.592C382.682 488.008 382.778 488.368 382.97 488.672C383.178 488.976 383.458 489.208 383.81 489.368C384.178 489.512 384.594 489.584 385.058 489.584C385.65 489.584 386.178 489.464 386.642 489.224C387.122 488.984 387.498 488.648 387.77 488.216C388.058 487.768 388.202 487.256 388.202 486.68L388.586 488.12C388.586 488.824 388.37 489.408 387.938 489.872C387.522 490.336 387.002 490.68 386.378 490.904C385.77 491.128 385.162 491.24 384.554 491.24C383.882 491.24 383.25 491.104 382.658 490.832C382.082 490.544 381.618 490.136 381.266 489.608C380.914 489.08 380.738 488.44 380.738 487.688C380.738 486.616 381.114 485.76 381.866 485.12C382.634 484.464 383.698 484.136 385.058 484.136C385.858 484.136 386.522 484.232 387.05 484.424C387.594 484.6 388.026 484.808 388.346 485.048C388.666 485.272 388.882 485.456 388.994 485.6V486.728C388.434 486.344 387.858 486.072 387.266 485.912C386.674 485.736 386.042 485.648 385.37 485.648C384.746 485.648 384.234 485.728 383.834 485.888C383.45 486.048 383.162 486.272 382.97 486.56C382.778 486.848 382.682 487.192 382.682 487.592ZM382.394 482.504L381.458 481.088C381.874 480.784 382.442 480.48 383.162 480.176C383.898 479.872 384.778 479.72 385.802 479.72C386.666 479.72 387.418 479.856 388.058 480.128C388.714 480.384 389.218 480.76 389.57 481.256C389.938 481.752 390.122 482.36 390.122 483.08V491H388.202V483.344C388.202 482.96 388.138 482.648 388.01 482.408C387.882 482.152 387.698 481.952 387.458 481.808C387.234 481.664 386.97 481.56 386.666 481.496C386.362 481.432 386.042 481.4 385.706 481.4C385.162 481.4 384.666 481.464 384.218 481.592C383.786 481.72 383.418 481.872 383.114 482.048C382.81 482.224 382.57 482.376 382.394 482.504ZM391.693 479.96H397.213V481.76H391.693V479.96ZM393.493 476.12H395.413V491H393.493V476.12ZM399.138 475.4C399.138 475.032 399.266 474.72 399.522 474.464C399.794 474.208 400.106 474.08 400.458 474.08C400.826 474.08 401.138 474.208 401.394 474.464C401.65 474.72 401.778 475.032 401.778 475.4C401.778 475.752 401.65 476.064 401.394 476.336C401.138 476.592 400.826 476.72 400.458 476.72C400.106 476.72 399.794 476.592 399.522 476.336C399.266 476.064 399.138 475.752 399.138 475.4ZM399.498 479.96H401.418V491H399.498V479.96ZM404.413 485.48C404.413 484.36 404.661 483.368 405.157 482.504C405.669 481.64 406.357 480.96 407.221 480.464C408.085 479.968 409.053 479.72 410.125 479.72C411.213 479.72 412.181 479.968 413.029 480.464C413.893 480.96 414.573 481.64 415.069 482.504C415.581 483.368 415.837 484.36 415.837 485.48C415.837 486.584 415.581 487.576 415.069 488.456C414.573 489.32 413.893 490 413.029 490.496C412.181 490.992 411.213 491.24 410.125 491.24C409.053 491.24 408.085 490.992 407.221 490.496C406.357 490 405.669 489.32 405.157 488.456C404.661 487.576 404.413 486.584 404.413 485.48ZM406.357 485.48C406.357 486.248 406.517 486.928 406.837 487.52C407.173 488.112 407.621 488.584 408.181 488.936C408.757 489.272 409.405 489.44 410.125 489.44C410.845 489.44 411.485 489.272 412.045 488.936C412.621 488.584 413.069 488.112 413.389 487.52C413.725 486.928 413.893 486.248 413.893 485.48C413.893 484.712 413.725 484.032 413.389 483.44C413.069 482.832 412.621 482.36 412.045 482.024C411.485 481.688 410.845 481.52 410.125 481.52C409.405 481.52 408.757 481.688 408.181 482.024C407.621 482.36 407.173 482.832 406.837 483.44C406.517 484.032 406.357 484.712 406.357 485.48ZM425.554 484.28C425.554 483.368 425.354 482.68 424.954 482.216C424.554 481.752 423.97 481.52 423.202 481.52C422.642 481.52 422.146 481.64 421.714 481.88C421.298 482.104 420.97 482.424 420.73 482.84C420.506 483.256 420.394 483.736 420.394 484.28V491H418.474V479.96H420.394V481.688C420.762 481.016 421.218 480.52 421.762 480.2C422.322 479.88 422.962 479.72 423.682 479.72C424.85 479.72 425.77 480.112 426.442 480.896C427.13 481.664 427.474 482.712 427.474 484.04V491H425.554V484.28Z" fill="#5B321D" fill-opacity="0.78"/>
<path d="M171.515 486.52L183.931 468.6H185.051V491H182.331V485.368V485.016V474.648L175.995 484.12H183.451H183.995H188.571V486.52H171.515ZM192.571 489.72C192.571 489.229 192.742 488.813 193.083 488.472C193.446 488.131 193.862 487.96 194.331 487.96C194.822 487.96 195.238 488.131 195.579 488.472C195.921 488.813 196.091 489.229 196.091 489.72C196.091 490.189 195.921 490.605 195.579 490.968C195.238 491.309 194.822 491.48 194.331 491.48C193.862 491.48 193.446 491.309 193.083 490.968C192.742 490.605 192.571 490.189 192.571 489.72Z" fill="black" fill-opacity="0.68"/>
<rect x="147" y="530" width="412" height="66" rx="20" fill="white" fill-opacity="0.48"/>
<path d="M230.938 557.2H232.978V574H230.938V557.2ZM232.066 559.12V557.2H235.498C236.586 557.2 237.554 557.408 238.402 557.824C239.266 558.224 239.946 558.8 240.442 559.552C240.954 560.304 241.21 561.2 241.21 562.24C241.21 563.264 240.954 564.16 240.442 564.928C239.946 565.68 239.266 566.264 238.402 566.68C237.554 567.08 236.586 567.28 235.498 567.28H232.066V565.36H235.498C236.586 565.36 237.466 565.096 238.138 564.568C238.826 564.04 239.17 563.264 239.17 562.24C239.17 561.2 238.826 560.424 238.138 559.912C237.466 559.384 236.586 559.12 235.498 559.12H232.066ZM245.887 555.28V574H243.967V555.28H245.887ZM251.047 567.28C251.047 566.368 250.847 565.68 250.447 565.216C250.063 564.752 249.479 564.52 248.695 564.52C248.135 564.52 247.639 564.64 247.207 564.88C246.791 565.12 246.463 565.448 246.223 565.864C245.999 566.28 245.887 566.752 245.887 567.28H245.263C245.263 566.4 245.431 565.624 245.767 564.952C246.103 564.264 246.559 563.72 247.135 563.32C247.727 562.92 248.407 562.72 249.175 562.72C249.943 562.72 250.607 562.88 251.167 563.2C251.743 563.52 252.183 564 252.487 564.64C252.807 565.28 252.967 566.08 252.967 567.04V574H251.047V567.28ZM257.44 570.592C257.44 571.008 257.536 571.368 257.728 571.672C257.936 571.976 258.216 572.208 258.568 572.368C258.936 572.512 259.352 572.584 259.816 572.584C260.408 572.584 260.936 572.464 261.4 572.224C261.88 571.984 262.256 571.648 262.528 571.216C262.816 570.768 262.96 570.256 262.96 569.68L263.344 571.12C263.344 571.824 263.128 572.408 262.696 572.872C262.28 573.336 261.76 573.68 261.136 573.904C260.528 574.128 259.92 574.24 259.312 574.24C258.64 574.24 258.008 574.104 257.416 573.832C256.84 573.544 256.376 573.136 256.024 572.608C255.672 572.08 255.496 571.44 255.496 570.688C255.496 569.616 255.872 568.76 256.624 568.12C257.392 567.464 258.456 567.136 259.816 567.136C260.616 567.136 261.28 567.232 261.808 567.424C262.352 567.6 262.784 567.808 263.104 568.048C263.424 568.272 263.64 568.456 263.752 568.6V569.728C263.192 569.344 262.616 569.072 262.024 568.912C261.432 568.736 260.8 568.648 260.128 568.648C259.504 568.648 258.992 568.728 258.592 568.888C258.208 569.048 257.92 569.272 257.728 569.56C257.536 569.848 257.44 570.192 257.44 570.592ZM257.152 565.504L256.216 564.088C256.632 563.784 257.2 563.48 257.92 563.176C258.656 562.872 259.536 562.72 260.56 562.72C261.424 562.72 262.176 562.856 262.816 563.128C263.472 563.384 263.976 563.76 264.328 564.256C264.696 564.752 264.88 565.36 264.88 566.08V574H262.96V566.344C262.96 565.96 262.896 565.648 262.768 565.408C262.64 565.152 262.456 564.952 262.216 564.808C261.992 564.664 261.728 564.56 261.424 564.496C261.12 564.432 260.8 564.4 260.464 564.4C259.92 564.4 259.424 564.464 258.976 564.592C258.544 564.72 258.176 564.872 257.872 565.048C257.568 565.224 257.328 565.376 257.152 565.504ZM268.587 570.616C268.811 570.952 269.067 571.264 269.355 571.552C269.643 571.84 269.971 572.072 270.339 572.248C270.723 572.408 271.139 572.488 271.587 572.488C272.131 572.488 272.555 572.368 272.859 572.128C273.179 571.872 273.339 571.528 273.339 571.096C273.339 570.712 273.211 570.392 272.955 570.136C272.715 569.864 272.403 569.64 272.019 569.464C271.635 569.272 271.227 569.096 270.795 568.936C270.315 568.744 269.827 568.52 269.331 568.264C268.851 567.992 268.443 567.648 268.107 567.232C267.787 566.8 267.627 566.264 267.627 565.624C267.627 564.968 267.795 564.424 268.131 563.992C268.483 563.56 268.931 563.24 269.475 563.032C270.035 562.824 270.611 562.72 271.203 562.72C271.795 562.72 272.347 562.816 272.859 563.008C273.387 563.2 273.851 563.456 274.251 563.776C274.651 564.096 274.963 564.464 275.187 564.88L273.651 565.864C273.347 565.448 272.963 565.104 272.499 564.832C272.051 564.56 271.539 564.424 270.963 564.424C270.563 564.424 270.219 564.512 269.931 564.688C269.643 564.864 269.499 565.136 269.499 565.504C269.499 565.792 269.611 566.048 269.835 566.272C270.059 566.496 270.347 566.696 270.699 566.872C271.051 567.048 271.419 567.216 271.803 567.376C272.443 567.632 273.027 567.912 273.555 568.216C274.083 568.504 274.499 568.856 274.803 569.272C275.123 569.688 275.283 570.224 275.283 570.88C275.283 571.84 274.931 572.64 274.227 573.28C273.539 573.92 272.627 574.24 271.491 574.24C270.755 574.24 270.091 574.112 269.499 573.856C268.907 573.584 268.403 573.24 267.987 572.824C267.587 572.408 267.283 571.984 267.075 571.552L268.587 570.616ZM282.082 574.24C281.058 574.24 280.146 574 279.346 573.52C278.562 573.024 277.946 572.344 277.498 571.48C277.066 570.616 276.85 569.616 276.85 568.48C276.85 567.328 277.074 566.32 277.522 565.456C277.986 564.592 278.626 563.92 279.442 563.44C280.274 562.96 281.234 562.72 282.322 562.72C283.41 562.72 284.338 562.952 285.106 563.416C285.89 563.864 286.49 564.512 286.906 565.36C287.322 566.208 287.53 567.216 287.53 568.384C287.53 568.496 287.522 568.616 287.506 568.744C287.506 568.856 287.506 568.928 287.506 568.96H278.074V567.328H285.994L285.226 568.432C285.274 568.352 285.322 568.232 285.37 568.072C285.418 567.896 285.442 567.752 285.442 567.64C285.442 566.984 285.306 566.416 285.034 565.936C284.778 565.456 284.418 565.08 283.954 564.808C283.49 564.536 282.946 564.4 282.322 564.4C281.586 564.4 280.954 564.56 280.426 564.88C279.914 565.184 279.514 565.632 279.226 566.224C278.954 566.8 278.81 567.512 278.794 568.36C278.794 569.224 278.93 569.96 279.202 570.568C279.474 571.176 279.874 571.64 280.402 571.96C280.93 572.28 281.57 572.44 282.322 572.44C283.074 572.44 283.738 572.28 284.314 571.96C284.89 571.624 285.378 571.12 285.778 570.448L287.338 571.432C286.762 572.36 286.034 573.064 285.154 573.544C284.29 574.008 283.266 574.24 282.082 574.24ZM295.677 562.96H301.197V564.76H295.677V562.96ZM297.477 559.12H299.397V574H297.477V559.12ZM307.395 574.24C306.371 574.24 305.459 574 304.659 573.52C303.875 573.024 303.259 572.344 302.811 571.48C302.379 570.616 302.163 569.616 302.163 568.48C302.163 567.328 302.387 566.32 302.835 565.456C303.299 564.592 303.939 563.92 304.755 563.44C305.587 562.96 306.547 562.72 307.635 562.72C308.723 562.72 309.651 562.952 310.419 563.416C311.203 563.864 311.803 564.512 312.219 565.36C312.635 566.208 312.843 567.216 312.843 568.384C312.843 568.496 312.835 568.616 312.819 568.744C312.819 568.856 312.819 568.928 312.819 568.96H303.387V567.328H311.307L310.539 568.432C310.587 568.352 310.635 568.232 310.683 568.072C310.731 567.896 310.755 567.752 310.755 567.64C310.755 566.984 310.619 566.416 310.347 565.936C310.091 565.456 309.731 565.08 309.267 564.808C308.803 564.536 308.259 564.4 307.635 564.4C306.899 564.4 306.267 564.56 305.739 564.88C305.227 565.184 304.827 565.632 304.539 566.224C304.267 566.8 304.123 567.512 304.107 568.36C304.107 569.224 304.243 569.96 304.515 570.568C304.787 571.176 305.187 571.64 305.715 571.96C306.243 572.28 306.883 572.44 307.635 572.44C308.387 572.44 309.051 572.28 309.627 571.96C310.203 571.624 310.691 571.12 311.091 570.448L312.651 571.432C312.075 572.36 311.347 573.064 310.467 573.544C309.603 574.008 308.579 574.24 307.395 574.24ZM315.93 570.616C316.154 570.952 316.41 571.264 316.698 571.552C316.986 571.84 317.314 572.072 317.682 572.248C318.066 572.408 318.482 572.488 318.93 572.488C319.474 572.488 319.898 572.368 320.202 572.128C320.522 571.872 320.682 571.528 320.682 571.096C320.682 570.712 320.554 570.392 320.298 570.136C320.058 569.864 319.746 569.64 319.362 569.464C318.978 569.272 318.57 569.096 318.138 568.936C317.658 568.744 317.17 568.52 316.674 568.264C316.194 567.992 315.786 567.648 315.45 567.232C315.13 566.8 314.97 566.264 314.97 565.624C314.97 564.968 315.138 564.424 315.474 563.992C315.826 563.56 316.274 563.24 316.818 563.032C317.378 562.824 317.954 562.72 318.546 562.72C319.138 562.72 319.69 562.816 320.202 563.008C320.73 563.2 321.194 563.456 321.594 563.776C321.994 564.096 322.306 564.464 322.53 564.88L320.994 565.864C320.69 565.448 320.306 565.104 319.842 564.832C319.394 564.56 318.882 564.424 318.306 564.424C317.906 564.424 317.562 564.512 317.274 564.688C316.986 564.864 316.842 565.136 316.842 565.504C316.842 565.792 316.954 566.048 317.178 566.272C317.402 566.496 317.69 566.696 318.042 566.872C318.394 567.048 318.762 567.216 319.146 567.376C319.786 567.632 320.37 567.912 320.898 568.216C321.426 568.504 321.842 568.856 322.146 569.272C322.466 569.688 322.626 570.224 322.626 570.88C322.626 571.84 322.274 572.64 321.57 573.28C320.882 573.92 319.97 574.24 318.834 574.24C318.098 574.24 317.434 574.112 316.842 573.856C316.25 573.584 315.746 573.24 315.33 572.824C314.93 572.408 314.626 571.984 314.418 571.552L315.93 570.616ZM323.474 562.96H328.994V564.76H323.474V562.96ZM325.274 559.12H327.194V574H325.274V559.12ZM331.376 570.616C331.6 570.952 331.856 571.264 332.144 571.552C332.432 571.84 332.76 572.072 333.128 572.248C333.512 572.408 333.928 572.488 334.376 572.488C334.92 572.488 335.344 572.368 335.648 572.128C335.968 571.872 336.128 571.528 336.128 571.096C336.128 570.712 336 570.392 335.744 570.136C335.504 569.864 335.192 569.64 334.808 569.464C334.424 569.272 334.016 569.096 333.584 568.936C333.104 568.744 332.616 568.52 332.12 568.264C331.64 567.992 331.232 567.648 330.896 567.232C330.576 566.8 330.416 566.264 330.416 565.624C330.416 564.968 330.584 564.424 330.92 563.992C331.272 563.56 331.72 563.24 332.264 563.032C332.824 562.824 333.4 562.72 333.992 562.72C334.584 562.72 335.136 562.816 335.648 563.008C336.176 563.2 336.64 563.456 337.04 563.776C337.44 564.096 337.752 564.464 337.976 564.88L336.44 565.864C336.136 565.448 335.752 565.104 335.288 564.832C334.84 564.56 334.328 564.424 333.752 564.424C333.352 564.424 333.008 564.512 332.72 564.688C332.432 564.864 332.288 565.136 332.288 565.504C332.288 565.792 332.4 566.048 332.624 566.272C332.848 566.496 333.136 566.696 333.488 566.872C333.84 567.048 334.208 567.216 334.592 567.376C335.232 567.632 335.816 567.912 336.344 568.216C336.872 568.504 337.288 568.856 337.592 569.272C337.912 569.688 338.072 570.224 338.072 570.88C338.072 571.84 337.72 572.64 337.016 573.28C336.328 573.92 335.416 574.24 334.28 574.24C333.544 574.24 332.88 574.112 332.288 573.856C331.696 573.584 331.192 573.24 330.776 572.824C330.376 572.408 330.072 571.984 329.864 571.552L331.376 570.616ZM349.715 569.68C349.715 570.56 349.915 571.24 350.315 571.72C350.715 572.2 351.299 572.44 352.067 572.44C352.627 572.44 353.115 572.328 353.531 572.104C353.963 571.864 354.291 571.536 354.515 571.12C354.755 570.704 354.875 570.224 354.875 569.68V562.96H356.795V574H354.875V572.272C354.507 572.928 354.051 573.424 353.507 573.76C352.963 574.08 352.323 574.24 351.587 574.24C350.435 574.24 349.515 573.848 348.827 573.064C348.139 572.28 347.795 571.232 347.795 569.92V562.96H349.715V569.68ZM358.724 562.96H364.244V564.76H358.724V562.96ZM360.524 559.12H362.444V574H360.524V559.12ZM366.17 558.4C366.17 558.032 366.298 557.72 366.554 557.464C366.826 557.208 367.138 557.08 367.49 557.08C367.858 557.08 368.17 557.208 368.426 557.464C368.682 557.72 368.81 558.032 368.81 558.4C368.81 558.752 368.682 559.064 368.426 559.336C368.17 559.592 367.858 559.72 367.49 559.72C367.138 559.72 366.826 559.592 366.554 559.336C366.298 559.064 366.17 558.752 366.17 558.4ZM366.53 562.96H368.45V574H366.53V562.96ZM372.404 555.28H374.324V574H372.404V555.28ZM377.935 558.4C377.935 558.032 378.063 557.72 378.319 557.464C378.591 557.208 378.903 557.08 379.255 557.08C379.623 557.08 379.935 557.208 380.191 557.464C380.447 557.72 380.575 558.032 380.575 558.4C380.575 558.752 380.447 559.064 380.191 559.336C379.935 559.592 379.623 559.72 379.255 559.72C378.903 559.72 378.591 559.592 378.319 559.336C378.063 559.064 377.935 558.752 377.935 558.4ZM378.295 562.96H380.215V574H378.295V562.96ZM384.626 570.616C384.85 570.952 385.106 571.264 385.394 571.552C385.682 571.84 386.01 572.072 386.378 572.248C386.762 572.408 387.178 572.488 387.626 572.488C388.17 572.488 388.594 572.368 388.898 572.128C389.218 571.872 389.378 571.528 389.378 571.096C389.378 570.712 389.25 570.392 388.994 570.136C388.754 569.864 388.442 569.64 388.058 569.464C387.674 569.272 387.266 569.096 386.834 568.936C386.354 568.744 385.866 568.52 385.37 568.264C384.89 567.992 384.482 567.648 384.146 567.232C383.826 566.8 383.666 566.264 383.666 565.624C383.666 564.968 383.834 564.424 384.17 563.992C384.522 563.56 384.97 563.24 385.514 563.032C386.074 562.824 386.65 562.72 387.242 562.72C387.834 562.72 388.386 562.816 388.898 563.008C389.426 563.2 389.89 563.456 390.29 563.776C390.69 564.096 391.002 564.464 391.226 564.88L389.69 565.864C389.386 565.448 389.002 565.104 388.538 564.832C388.09 564.56 387.578 564.424 387.002 564.424C386.602 564.424 386.258 564.512 385.97 564.688C385.682 564.864 385.538 565.136 385.538 565.504C385.538 565.792 385.65 566.048 385.874 566.272C386.098 566.496 386.386 566.696 386.738 566.872C387.09 567.048 387.458 567.216 387.842 567.376C388.482 567.632 389.066 567.912 389.594 568.216C390.122 568.504 390.538 568.856 390.842 569.272C391.162 569.688 391.322 570.224 391.322 570.88C391.322 571.84 390.97 572.64 390.266 573.28C389.578 573.92 388.666 574.24 387.53 574.24C386.794 574.24 386.13 574.112 385.538 573.856C384.946 573.584 384.442 573.24 384.026 572.824C383.626 572.408 383.322 571.984 383.114 571.552L384.626 570.616ZM394.713 570.592C394.713 571.008 394.809 571.368 395.001 571.672C395.209 571.976 395.489 572.208 395.841 572.368C396.209 572.512 396.625 572.584 397.089 572.584C397.681 572.584 398.209 572.464 398.673 572.224C399.153 571.984 399.529 571.648 399.801 571.216C400.089 570.768 400.233 570.256 400.233 569.68L400.617 571.12C400.617 571.824 400.401 572.408 399.969 572.872C399.553 573.336 399.033 573.68 398.409 573.904C397.801 574.128 397.193 574.24 396.585 574.24C395.913 574.24 395.281 574.104 394.689 573.832C394.113 573.544 393.649 573.136 393.297 572.608C392.945 572.08 392.769 571.44 392.769 570.688C392.769 569.616 393.145 568.76 393.897 568.12C394.665 567.464 395.729 567.136 397.089 567.136C397.889 567.136 398.553 567.232 399.081 567.424C399.625 567.6 400.057 567.808 400.377 568.048C400.697 568.272 400.913 568.456 401.025 568.6V569.728C400.465 569.344 399.889 569.072 399.297 568.912C398.705 568.736 398.073 568.648 397.401 568.648C396.777 568.648 396.265 568.728 395.865 568.888C395.481 569.048 395.193 569.272 395.001 569.56C394.809 569.848 394.713 570.192 394.713 570.592ZM394.425 565.504L393.489 564.088C393.905 563.784 394.473 563.48 395.193 563.176C395.929 562.872 396.809 562.72 397.833 562.72C398.697 562.72 399.449 562.856 400.089 563.128C400.745 563.384 401.249 563.76 401.601 564.256C401.969 564.752 402.153 565.36 402.153 566.08V574H400.233V566.344C400.233 565.96 400.169 565.648 400.041 565.408C399.913 565.152 399.729 564.952 399.489 564.808C399.265 564.664 399.001 564.56 398.697 564.496C398.393 564.432 398.073 564.4 397.737 564.4C397.193 564.4 396.697 564.464 396.249 564.592C395.817 564.72 395.449 564.872 395.145 565.048C394.841 565.224 394.601 565.376 394.425 565.504ZM403.724 562.96H409.244V564.76H403.724V562.96ZM405.524 559.12H407.444V574H405.524V559.12ZM415.442 574.24C414.418 574.24 413.506 574 412.706 573.52C411.922 573.024 411.306 572.344 410.858 571.48C410.426 570.616 410.21 569.616 410.21 568.48C410.21 567.328 410.434 566.32 410.882 565.456C411.346 564.592 411.986 563.92 412.802 563.44C413.634 562.96 414.594 562.72 415.682 562.72C416.77 562.72 417.698 562.952 418.466 563.416C419.25 563.864 419.85 564.512 420.266 565.36C420.682 566.208 420.89 567.216 420.89 568.384C420.89 568.496 420.882 568.616 420.866 568.744C420.866 568.856 420.866 568.928 420.866 568.96H411.434V567.328H419.354L418.586 568.432C418.634 568.352 418.682 568.232 418.73 568.072C418.778 567.896 418.802 567.752 418.802 567.64C418.802 566.984 418.666 566.416 418.394 565.936C418.138 565.456 417.778 565.08 417.314 564.808C416.85 564.536 416.306 564.4 415.682 564.4C414.946 564.4 414.314 564.56 413.786 564.88C413.274 565.184 412.874 565.632 412.586 566.224C412.314 566.8 412.17 567.512 412.154 568.36C412.154 569.224 412.29 569.96 412.562 570.568C412.834 571.176 413.234 571.64 413.762 571.96C414.29 572.28 414.93 572.44 415.682 572.44C416.434 572.44 417.098 572.28 417.674 571.96C418.25 571.624 418.738 571.12 419.138 570.448L420.698 571.432C420.122 572.36 419.394 573.064 418.514 573.544C417.65 574.008 416.626 574.24 415.442 574.24ZM425.441 569.68C425.441 570.56 425.641 571.24 426.041 571.72C426.441 572.2 427.025 572.44 427.793 572.44C428.353 572.44 428.841 572.328 429.257 572.104C429.689 571.864 430.017 571.536 430.241 571.12C430.481 570.704 430.601 570.224 430.601 569.68V562.96H432.521V574H430.601V572.272C430.233 572.928 429.777 573.424 429.233 573.76C428.689 574.08 428.049 574.24 427.313 574.24C426.161 574.24 425.241 573.848 424.553 573.064C423.865 572.28 423.521 571.232 423.521 569.92V562.96H425.441V569.68ZM438.051 562.96V574H436.131V562.96H438.051ZM441.387 565.072C441.131 564.88 440.899 564.744 440.691 564.664C440.483 564.568 440.219 564.52 439.899 564.52C439.419 564.52 439.043 564.64 438.771 564.88C438.499 565.12 438.307 565.448 438.195 565.864C438.099 566.28 438.051 566.752 438.051 567.28H437.187C437.187 566.4 437.339 565.624 437.643 564.952C437.963 564.264 438.371 563.72 438.867 563.32C439.363 562.92 439.867 562.72 440.379 562.72C440.779 562.72 441.147 562.776 441.483 562.888C441.835 562.984 442.155 563.184 442.443 563.488L441.387 565.072ZM444.813 570.616C445.037 570.952 445.293 571.264 445.581 571.552C445.869 571.84 446.197 572.072 446.565 572.248C446.949 572.408 447.365 572.488 447.813 572.488C448.357 572.488 448.781 572.368 449.085 572.128C449.405 571.872 449.565 571.528 449.565 571.096C449.565 570.712 449.437 570.392 449.181 570.136C448.941 569.864 448.629 569.64 448.245 569.464C447.861 569.272 447.453 569.096 447.021 568.936C446.541 568.744 446.053 568.52 445.557 568.264C445.077 567.992 444.669 567.648 444.333 567.232C444.013 566.8 443.853 566.264 443.853 565.624C443.853 564.968 444.021 564.424 444.357 563.992C444.709 563.56 445.157 563.24 445.701 563.032C446.261 562.824 446.837 562.72 447.429 562.72C448.021 562.72 448.573 562.816 449.085 563.008C449.613 563.2 450.077 563.456 450.477 563.776C450.877 564.096 451.189 564.464 451.413 564.88L449.877 565.864C449.573 565.448 449.189 565.104 448.725 564.832C448.277 564.56 447.765 564.424 447.189 564.424C446.789 564.424 446.445 564.512 446.157 564.688C445.869 564.864 445.725 565.136 445.725 565.504C445.725 565.792 445.837 566.048 446.061 566.272C446.285 566.496 446.573 566.696 446.925 566.872C447.277 567.048 447.645 567.216 448.029 567.376C448.669 567.632 449.253 567.912 449.781 568.216C450.309 568.504 450.725 568.856 451.029 569.272C451.349 569.688 451.509 570.224 451.509 570.88C451.509 571.84 451.157 572.64 450.453 573.28C449.765 573.92 448.853 574.24 447.717 574.24C446.981 574.24 446.317 574.112 445.725 573.856C445.133 573.584 444.629 573.24 444.213 572.824C443.813 572.408 443.509 571.984 443.301 571.552L444.813 570.616Z" fill="#5B321D" fill-opacity="0.78"/>
<path d="M189.94 566.64C189.94 567.92 189.737 569.04 189.332 570C188.927 570.96 188.361 571.76 187.636 572.4C186.911 573.04 186.079 573.52 185.14 573.84C184.201 574.16 183.188 574.32 182.1 574.32C180.735 574.32 179.54 574.107 178.516 573.68C177.513 573.253 176.649 572.688 175.924 571.984C175.22 571.259 174.623 570.469 174.132 569.616L176.436 568.048C176.777 568.688 177.225 569.296 177.78 569.872C178.356 570.427 179.017 570.885 179.764 571.248C180.511 571.589 181.289 571.76 182.1 571.76C183.167 571.76 184.073 571.547 184.82 571.12C185.567 570.693 186.132 570.096 186.516 569.328C186.921 568.56 187.124 567.664 187.124 566.64C187.124 565.616 186.9 564.72 186.452 563.952C186.025 563.184 185.428 562.587 184.66 562.16C183.913 561.733 183.06 561.52 182.1 561.52C181.396 561.52 180.745 561.584 180.148 561.712C179.572 561.819 178.985 562.021 178.388 562.32C177.812 562.597 177.14 563.003 176.372 563.536L179.316 551.6H189.876V554H181.428L179.924 559.92C180.457 559.643 181.001 559.44 181.556 559.312C182.132 559.163 182.697 559.088 183.252 559.088C184.532 559.088 185.673 559.408 186.676 560.048C187.7 560.688 188.5 561.573 189.076 562.704C189.652 563.835 189.94 565.147 189.94 566.64ZM194.274 572.72C194.274 572.229 194.445 571.813 194.786 571.472C195.149 571.131 195.565 570.96 196.034 570.96C196.525 570.96 196.941 571.131 197.282 571.472C197.624 571.813 197.794 572.229 197.794 572.72C197.794 573.189 197.624 573.605 197.282 573.968C196.941 574.309 196.525 574.48 196.034 574.48C195.565 574.48 195.149 574.309 194.786 573.968C194.445 573.605 194.274 573.189 194.274 572.72Z" fill="black" fill-opacity="0.68"/>
</svg>
