<svg width="680" height="818" viewBox="0 0 680 818" fill="none" xmlns="http://www.w3.org/2000/svg">
    <g filter="url(#filter0_di_101_151)">
    <rect width="546.404" height="411.825" rx="21.9486" transform="matrix(-0.891722 -0.452583 -0.452583 0.891722 462.527 424.563)" fill="url(#paint0_linear_101_151)"/>
    <mask id="mask0_101_151" style="mask-type:alpha" maskUnits="userSpaceOnUse" x="-190" y="200" width="631" height="569">
    <rect width="516.37" height="376.592" rx="1.73278" transform="matrix(-0.891722 -0.452583 -0.452583 0.891722 441.032 433.733)" fill="#8F8F8F"/>
    </mask>
    <g mask="url(#mask0_101_151)">
    <rect width="516.37" height="376.592" rx="1.73278" transform="matrix(-0.891722 -0.452583 -0.452583 0.891722 441.032 433.733)" fill="#E3E3E3"/>
    <g filter="url(#filter1_d_101_151)">
    <rect width="516.37" height="23.1038" transform="matrix(-0.891722 -0.452583 -0.452583 0.891722 441.032 433.733)" fill="#D1D1D1"/>
    <rect width="10.9743" height="10.9743" transform="matrix(-0.891722 -0.452583 -0.452583 0.891722 426.056 432.61)" fill="#565656"/>
    <circle cx="5.48715" cy="5.48715" r="5.48715" transform="matrix(-0.891722 -0.452583 -0.452583 0.891722 409.575 424.245)" fill="#565656"/>
    <path d="M389.487 414.05L378.855 420.96L390.186 426.711L389.487 414.05Z" fill="#565656"/>
    <rect width="351.177" height="12.7071" rx="5.77595" transform="matrix(-0.891722 -0.452583 -0.452583 0.891722 364.511 400.726)" fill="white"/>
    <path fill-rule="evenodd" clip-rule="evenodd" d="M58.002 253.737L57.8308 254.074L58.8844 257.289L59.8435 256.976L58.7964 253.759L58.4591 253.588L58.398 253.412C59.0635 253.137 59.6362 252.633 59.9851 251.946C60.7632 250.413 60.1512 248.54 58.6183 247.762C57.0854 246.984 55.2121 247.596 54.4341 249.129C53.6561 250.661 54.268 252.535 55.8009 253.313C56.4884 253.662 57.2482 253.73 57.9474 253.559L58.002 253.737ZM58.1848 248.616C59.248 249.155 59.6707 250.449 59.1311 251.512C58.5914 252.576 57.2975 252.998 56.2343 252.459C55.1711 251.919 54.7484 250.625 55.288 249.562C55.8277 248.499 57.1216 248.076 58.1848 248.616Z" fill="#8B8B8B"/>
    </g>
    </g>
    <rect width="69.8889" height="5.19835" rx="2.59918" transform="matrix(-0.891722 -0.452583 -0.452583 0.891722 244.358 320.959)" fill="#CECECE"/>
    <circle cx="2.59918" cy="2.59918" r="2.59918" transform="matrix(-0.891722 -0.452583 -0.452583 0.891722 177.402 286.976)" fill="#CECECE"/>
    <circle cx="2.59918" cy="2.59918" r="2.59918" transform="matrix(-0.891722 -0.452583 -0.452583 0.891722 259.295 328.54)" fill="#CECECE"/>
    </g>
    <g filter="url(#filter2_di_101_151)">
    <path d="M643.356 465.582L517.024 401.463L393.684 644.48C390.652 650.454 393.037 657.754 399.01 660.786L503.71 713.925C509.684 716.957 516.984 714.572 520.016 708.598L643.356 465.582Z" fill="#E3E3E3"/>
    <path d="M645.947 464.306C649.845 456.626 646.779 447.239 639.099 443.341L536.974 391.509C529.294 387.611 519.908 390.677 516.01 398.358L514.964 400.418L644.902 466.366L645.947 464.306Z" fill="#E3E3E3"/>
    <path opacity="0.4" d="M547.963 406.249C548.276 405.633 548.03 404.88 547.413 404.567L538.496 400.041C537.879 399.728 537.126 399.974 536.813 400.59L535.06 404.046C534.747 404.662 534.993 405.415 535.609 405.728L544.527 410.254C545.143 410.567 545.896 410.321 546.209 409.704L547.963 406.249Z" stroke="#565656" stroke-width="0.577595"/>
    <path opacity="0.5" d="M535.705 400.823L534.594 403.012C534.259 402.609 534.2 402.037 534.442 401.559C534.685 401.081 535.182 400.791 535.705 400.823Z" fill="#565656"/>
    <path d="M546.953 406.249C547.146 405.87 546.994 405.406 546.615 405.214L538.445 401.067C538.066 400.875 537.602 401.026 537.41 401.405L536.07 404.045C535.877 404.424 536.029 404.888 536.408 405.08L544.578 409.227C544.957 409.42 545.421 409.268 545.613 408.889L546.953 406.249Z" fill="#565656"/>
    <path fill-rule="evenodd" clip-rule="evenodd" d="M555.011 409.641C553.831 409.042 552.464 408.925 551.192 409.313C551.095 409.344 550.993 409.291 550.962 409.194L550.666 408.254C550.65 408.205 550.655 408.151 550.678 408.106C550.702 408.06 550.743 408.025 550.792 408.009C554.139 406.973 557.679 408.769 558.819 412.083C558.835 412.132 558.831 412.185 558.808 412.232C558.785 412.278 558.745 412.313 558.696 412.33L557.762 412.645C557.666 412.678 557.562 412.626 557.53 412.53C557.092 411.274 556.191 410.24 555.011 409.641ZM553.977 411.68C553.328 411.351 552.576 411.283 551.866 411.49C551.768 411.521 551.667 411.468 551.637 411.37L551.348 410.413C551.333 410.363 551.338 410.308 551.363 410.261C551.387 410.213 551.429 410.177 551.479 410.161C553.66 409.493 555.928 410.644 556.676 412.799C556.693 412.849 556.689 412.904 556.665 412.952C556.641 412.999 556.6 413.036 556.55 413.053L555.608 413.385C555.511 413.419 555.408 413.368 555.376 413.271C555.124 412.576 554.625 412.009 553.977 411.68ZM551.983 412.542C551.958 412.588 551.953 412.643 551.97 412.692L552.485 414.324C552.5 414.372 552.534 414.412 552.578 414.434C552.623 414.457 552.675 414.461 552.722 414.444L554.344 413.897C554.393 413.881 554.434 413.845 554.457 413.798C554.48 413.751 554.482 413.696 554.464 413.647C554.078 412.718 553.078 412.211 552.1 412.448C552.05 412.462 552.007 412.496 551.983 412.542Z" fill="#565656"/>
    <path fill-rule="evenodd" clip-rule="evenodd" d="M561.979 412.553C562.132 412.251 562.494 412.126 562.787 412.275L563.317 412.544C563.61 412.693 563.723 413.058 563.569 413.36L561.162 418.103C561.009 418.405 560.647 418.53 560.354 418.381L559.824 418.112C559.531 417.964 559.418 417.598 559.572 417.296L561.979 412.553ZM565.143 415.077L564.613 414.808C564.32 414.659 563.958 414.784 563.805 415.086L562.046 418.552C561.892 418.854 562.006 419.219 562.298 419.368L562.829 419.637C563.121 419.786 563.483 419.661 563.637 419.359L565.396 415.893C565.549 415.591 565.436 415.225 565.143 415.077ZM566.439 417.34L566.969 417.609C567.262 417.758 567.375 418.123 567.222 418.426L566.111 420.615C565.957 420.917 565.596 421.041 565.303 420.893L564.773 420.624C564.48 420.475 564.367 420.11 564.52 419.807L565.631 417.618C565.784 417.316 566.146 417.192 566.439 417.34ZM567.55 419.969C567.703 419.667 568.065 419.542 568.358 419.691L568.888 419.96C569.181 420.108 569.294 420.474 569.141 420.776L568.585 421.871C568.432 422.173 568.07 422.297 567.777 422.149L567.247 421.88C566.954 421.731 566.841 421.366 566.995 421.063L567.55 419.969Z" fill="#565656"/>
    <path d="M630.488 447.389C630.172 447.228 629.855 447.129 629.539 447.092C629.22 447.054 628.929 447.093 628.668 447.21C628.407 447.324 628.202 447.53 628.051 447.827C627.939 448.048 627.884 448.264 627.888 448.475C627.889 448.684 627.932 448.889 628.017 449.09C628.103 449.289 628.216 449.482 628.358 449.671C628.109 449.675 627.862 449.701 627.616 449.75C627.371 449.797 627.146 449.883 626.942 450.011C626.736 450.137 626.571 450.322 626.447 450.566C626.291 450.873 626.238 451.181 626.286 451.49C626.336 451.797 626.475 452.085 626.701 452.355C626.928 452.625 627.232 452.857 627.615 453.051C628.027 453.261 628.408 453.38 628.757 453.408C629.106 453.437 629.412 453.38 629.674 453.238C629.937 453.093 630.147 452.867 630.302 452.561C630.43 452.309 630.494 452.067 630.496 451.833C630.495 451.599 630.447 451.374 630.354 451.159C630.262 450.942 630.144 450.736 629.998 450.542C630.214 450.522 630.423 450.481 630.625 450.419C630.825 450.356 631.008 450.26 631.174 450.133C631.337 450.004 631.475 449.83 631.586 449.611C631.734 449.319 631.776 449.034 631.712 448.755C631.645 448.475 631.503 448.217 631.283 447.982C631.065 447.745 630.8 447.547 630.488 447.389ZM629.258 451.945C629.157 452.144 629.003 452.273 628.796 452.332C628.587 452.388 628.344 452.345 628.064 452.203C627.775 452.056 627.59 451.885 627.509 451.689C627.43 451.49 627.442 451.289 627.545 451.085C627.617 450.945 627.721 450.842 627.857 450.779C627.991 450.714 628.141 450.671 628.306 450.651C628.473 450.628 628.638 450.612 628.8 450.603L628.929 450.602C629.053 450.756 629.152 450.91 629.227 451.061C629.299 451.212 629.341 451.361 629.351 451.509C629.362 451.656 629.331 451.802 629.258 451.945ZM630.063 448.246C630.254 448.343 630.388 448.472 630.464 448.634C630.54 448.796 630.533 448.966 630.442 449.145C630.378 449.27 630.292 449.366 630.183 449.431C630.073 449.492 629.95 449.532 629.813 449.551C629.674 449.569 629.529 449.578 629.378 449.577C629.29 449.463 629.214 449.347 629.147 449.228C629.081 449.109 629.041 448.985 629.027 448.858C629.012 448.731 629.039 448.6 629.107 448.467C629.197 448.288 629.332 448.183 629.51 448.15C629.685 448.115 629.87 448.147 630.063 448.246ZM625.155 451.03C625.275 450.793 625.295 450.595 625.215 450.434C625.133 450.272 625 450.145 624.816 450.051C624.638 449.961 624.46 449.931 624.283 449.961C624.104 449.99 623.954 450.123 623.834 450.36C623.72 450.586 623.702 450.783 623.782 450.95C623.859 451.115 623.987 451.243 624.165 451.334C624.349 451.427 624.532 451.457 624.714 451.423C624.893 451.387 625.04 451.256 625.155 451.03ZM626.736 447.914C626.856 447.677 626.876 447.479 626.797 447.318C626.714 447.156 626.581 447.029 626.398 446.936C626.219 446.845 626.042 446.815 625.865 446.845C625.686 446.874 625.536 447.007 625.416 447.244C625.3 447.473 625.282 447.67 625.361 447.837C625.44 448.001 625.568 448.127 625.747 448.218C625.93 448.311 626.113 448.342 626.293 448.31C626.472 448.275 626.62 448.143 626.736 447.914ZM619.808 448.994L620.974 449.586L622.593 446.395C622.638 446.307 622.692 446.198 622.754 446.068C622.818 445.936 622.882 445.801 622.946 445.663C623.011 445.522 623.069 445.395 623.12 445.282C623.131 445.328 623.159 445.414 623.204 445.537C623.247 445.658 623.29 445.768 623.331 445.867L623.706 446.698L624.624 446.282L623.565 443.966L622.607 443.479L619.808 448.994ZM617.93 443.61C617.593 443.439 617.261 443.352 616.935 443.347C616.606 443.341 616.302 443.425 616.025 443.597C615.748 443.769 615.517 444.038 615.332 444.403C615.13 444.8 615.039 445.185 615.058 445.559C615.076 445.929 615.209 446.273 615.459 446.592C615.705 446.91 616.071 447.193 616.556 447.439C616.846 447.586 617.131 447.699 617.413 447.779C617.692 447.86 617.952 447.899 618.194 447.895L618.705 446.888C618.463 446.892 618.191 446.861 617.888 446.796C617.585 446.728 617.315 446.633 617.078 446.513C616.847 446.396 616.668 446.267 616.54 446.126C616.413 445.983 616.342 445.826 616.327 445.657C616.31 445.484 616.353 445.297 616.455 445.096C616.592 444.827 616.787 444.667 617.041 444.615C617.295 444.564 617.609 444.633 617.984 444.823C618.127 444.896 618.27 444.986 618.411 445.093C618.551 445.198 618.665 445.291 618.754 445.371L619.344 445.358L620.563 442.442L617.572 440.924L617.07 441.912L619.039 442.911L618.592 444.046C618.515 443.985 618.431 443.92 618.339 443.851C618.248 443.783 618.111 443.702 617.93 443.61Z" fill="#565656"/>
    <path d="M589.653 418.246L586.934 416.866L580.827 428.898C580.446 429.649 580.746 430.566 581.497 430.947C582.248 431.329 583.166 431.029 583.547 430.278L589.653 418.246Z" fill="white"/>
    <rect width="31.1901" height="2.31038" rx="1.15519" transform="matrix(-0.891722 -0.452583 -0.452583 0.891722 601.062 430.514)" fill="#CECECE"/>
    <circle cx="1.15519" cy="1.15519" r="1.15519" transform="matrix(-0.891722 -0.452583 -0.452583 0.891722 571.189 415.352)" fill="#CECECE"/>
    <rect x="-5.82347" y="1.90233" width="150.336" height="308.336" rx="28.5909" transform="matrix(-0.891722 -0.452583 -0.452583 0.891722 651.906 445.441)" stroke="white" stroke-width="8.66392"/>
    </g>
    <g filter="url(#filter3_d_101_151)">
    <path d="M297.745 40.2827L194.33 244.041L460.174 378.967C467.007 382.435 475.358 379.707 478.827 372.873L569.682 193.861C573.15 187.028 570.422 178.677 563.589 175.208L297.745 40.2827Z" fill="#E3E3E3"/>
    <path d="M295.986 37.9084C287.2 33.4493 276.463 36.9568 272.004 45.7425L183.242 220.631C178.783 229.416 182.29 240.153 191.076 244.613L193.433 245.809L298.343 39.1046L295.986 37.9084Z" fill="#E3E3E3"/>
    <path opacity="0.4" d="M199.969 208.325C199.264 207.967 198.402 208.249 198.045 208.954L192.867 219.155C192.509 219.86 192.791 220.721 193.496 221.079L197.448 223.085C198.153 223.443 199.015 223.161 199.373 222.456L204.55 212.255C204.908 211.55 204.627 210.689 203.921 210.331L199.969 208.325Z" stroke="#565656" stroke-width="0.660729"/>
    <path opacity="0.5" d="M193.762 222.348L196.266 223.619C195.805 224.001 195.15 224.07 194.604 223.792C194.057 223.515 193.726 222.946 193.762 222.348Z" fill="#565656"/>
    <path d="M199.969 209.48C199.535 209.26 199.005 209.433 198.784 209.867L194.041 219.213C193.821 219.647 193.994 220.177 194.428 220.398L197.447 221.93C197.881 222.15 198.411 221.977 198.632 221.543L203.375 212.197C203.595 211.763 203.422 211.233 202.988 211.013L199.969 209.48Z" fill="#565656"/>
    <path fill-rule="evenodd" clip-rule="evenodd" d="M203.849 200.262C203.164 201.612 203.03 203.176 203.474 204.631C203.509 204.741 203.448 204.859 203.338 204.894L202.262 205.233C202.206 205.251 202.145 205.246 202.092 205.218C202.04 205.191 202 205.145 201.982 205.089C200.797 201.259 202.852 197.21 206.642 195.906C206.698 195.888 206.759 195.892 206.812 195.919C206.865 195.945 206.905 195.991 206.924 196.047L207.285 197.116C207.322 197.226 207.264 197.344 207.153 197.381C205.717 197.881 204.534 198.913 203.849 200.262ZM206.181 201.445C205.805 202.187 205.727 203.048 205.964 203.86C206 203.972 205.939 204.088 205.827 204.123L204.732 204.453C204.675 204.47 204.612 204.464 204.558 204.436C204.504 204.408 204.463 204.36 204.444 204.303C203.679 201.808 204.996 199.213 207.461 198.357C207.518 198.339 207.581 198.344 207.636 198.371C207.691 198.398 207.733 198.445 207.753 198.502L208.132 199.58C208.171 199.69 208.113 199.808 208.002 199.846C207.207 200.134 206.558 200.704 206.181 201.445ZM207.168 203.727C207.221 203.755 207.283 203.76 207.339 203.742L209.206 203.152C209.261 203.135 209.306 203.097 209.332 203.046C209.358 202.995 209.362 202.935 209.344 202.881L208.718 201.026C208.699 200.969 208.658 200.922 208.604 200.896C208.55 200.87 208.488 200.867 208.432 200.889C207.369 201.33 206.789 202.473 207.06 203.592C207.076 203.65 207.115 203.698 207.168 203.727Z" fill="#565656"/>
    <path fill-rule="evenodd" clip-rule="evenodd" d="M207.18 192.292C206.834 192.116 206.692 191.702 206.862 191.367L207.17 190.761C207.34 190.426 207.758 190.297 208.104 190.472L213.529 193.226C213.875 193.401 214.017 193.815 213.847 194.15L213.539 194.756C213.369 195.091 212.951 195.221 212.605 195.045L207.18 192.292ZM210.067 188.672L209.759 189.278C209.589 189.613 209.731 190.027 210.077 190.203L214.042 192.215C214.388 192.39 214.806 192.261 214.976 191.926L215.284 191.32C215.454 190.985 215.311 190.571 214.965 190.395L211.001 188.383C210.655 188.208 210.237 188.337 210.067 188.672ZM212.656 187.189L212.964 186.583C213.134 186.248 213.552 186.119 213.898 186.294L216.402 187.565C216.748 187.74 216.89 188.154 216.72 188.489L216.412 189.096C216.242 189.431 215.824 189.56 215.478 189.385L212.974 188.114C212.629 187.938 212.486 187.524 212.656 187.189ZM215.663 185.919C215.317 185.743 215.175 185.329 215.345 184.994L215.653 184.388C215.823 184.053 216.241 183.923 216.587 184.099L217.839 184.734C218.184 184.91 218.327 185.324 218.157 185.659L217.849 186.265C217.679 186.6 217.261 186.729 216.915 186.554L215.663 185.919Z" fill="#565656"/>
    <path d="M277.263 55.9109C277.079 56.2734 276.965 56.6356 276.923 56.9975C276.879 57.3623 276.924 57.6944 277.058 57.9938C277.188 58.2919 277.424 58.527 277.763 58.6993C278.016 58.8278 278.263 58.8899 278.504 58.8856C278.744 58.8841 278.979 58.835 279.209 58.7383C279.436 58.6401 279.657 58.5101 279.873 58.3484C279.877 58.6327 279.907 58.9156 279.963 59.1973C280.017 59.4776 280.116 59.7343 280.262 59.9674C280.406 60.2035 280.618 60.3923 280.897 60.534C281.248 60.7121 281.6 60.7734 281.954 60.7178C282.305 60.6607 282.635 60.5026 282.944 60.2433C283.253 59.984 283.518 59.6357 283.74 59.1984C283.979 58.7266 284.116 58.2909 284.148 57.8915C284.181 57.492 284.116 57.1424 283.953 56.8428C283.788 56.5417 283.529 56.3021 283.178 56.1239C282.891 55.9779 282.613 55.9041 282.347 55.9025C282.078 55.9038 281.821 55.9578 281.575 56.0645C281.326 56.1698 281.091 56.3054 280.869 56.4715C280.846 56.2246 280.799 55.9856 280.729 55.7543C280.656 55.5259 280.547 55.3167 280.401 55.1268C280.254 54.9398 280.055 54.7828 279.805 54.6558C279.471 54.4864 279.144 54.4383 278.825 54.5114C278.504 54.5874 278.21 54.7508 277.941 55.0017C277.67 55.2511 277.444 55.5542 277.263 55.9109ZM282.474 57.3187C282.702 57.4341 282.849 57.6102 282.917 57.8473C282.981 58.0857 282.931 58.3646 282.769 58.684C282.601 59.0148 282.405 59.2264 282.181 59.3189C281.954 59.4098 281.724 59.3962 281.491 59.2779C281.33 59.1962 281.213 59.0771 281.14 58.9209C281.066 58.7675 281.017 58.5962 280.994 58.4071C280.968 58.2165 280.949 58.0281 280.939 57.8419L280.938 57.6947C281.115 57.5529 281.29 57.4393 281.463 57.3537C281.636 57.2711 281.806 57.2238 281.975 57.2118C282.144 57.1998 282.31 57.2355 282.474 57.3187ZM278.242 56.3973C278.353 56.1786 278.501 56.0258 278.687 55.9389C278.872 55.852 279.067 55.8604 279.271 55.9641C279.415 56.0371 279.524 56.1359 279.598 56.2604C279.668 56.3863 279.714 56.5273 279.736 56.6833C279.757 56.8421 279.767 57.0081 279.766 57.1812C279.635 57.2814 279.502 57.3694 279.366 57.445C279.23 57.5207 279.089 57.5667 278.943 57.5832C278.797 57.5996 278.648 57.5691 278.495 57.4917C278.291 57.3881 278.17 57.2344 278.132 57.0307C278.093 56.8299 278.13 56.6188 278.242 56.3973ZM281.427 62.0123C281.157 61.875 280.93 61.852 280.746 61.9432C280.561 62.0373 280.415 62.1894 280.308 62.3994C280.205 62.6037 280.17 62.8069 280.205 63.0091C280.238 63.2142 280.39 63.3854 280.661 63.5226C280.92 63.654 281.145 63.6741 281.336 63.5829C281.525 63.4946 281.672 63.3483 281.775 63.1441C281.882 62.9341 281.916 62.7251 281.877 62.5171C281.836 62.3119 281.686 62.1437 281.427 62.0123ZM277.863 60.2031C277.592 60.0659 277.365 60.0429 277.181 60.1341C276.996 60.2282 276.85 60.3803 276.744 60.5903C276.64 60.7946 276.606 60.9978 276.64 61.2C276.674 61.4051 276.826 61.5763 277.096 61.7135C277.358 61.8464 277.584 61.8672 277.775 61.776C277.962 61.6863 278.107 61.5392 278.211 61.335C278.318 61.125 278.353 60.9167 278.316 60.7101C278.276 60.505 278.125 60.336 277.863 60.2031ZM279.099 68.1287L279.776 66.7952L276.125 64.9423C276.024 64.8912 275.9 64.8299 275.752 64.7583C275.601 64.6852 275.446 64.6122 275.288 64.5391C275.127 64.4645 274.981 64.398 274.852 64.3395C274.905 64.3268 275.003 64.295 275.144 64.2439C275.282 64.1942 275.408 64.1459 275.522 64.099L276.472 63.6697L275.996 62.6193L273.346 63.8305L272.79 64.9266L279.099 68.1287ZM272.94 70.2766C272.744 70.6621 272.644 71.0417 272.639 71.4154C272.632 71.7919 272.728 72.1388 272.925 72.4559C273.122 72.7731 273.429 73.0375 273.846 73.2493C274.301 73.48 274.742 73.5843 275.169 73.5624C275.592 73.5418 275.986 73.3891 276.351 73.1042C276.715 72.8221 277.038 72.4035 277.32 71.8482C277.488 71.5174 277.617 71.1906 277.709 70.868C277.801 70.5497 277.846 70.252 277.842 69.975L276.69 69.3902C276.694 69.6672 276.659 69.9787 276.584 70.3245C276.506 70.6718 276.398 70.9806 276.261 71.251C276.126 71.5157 275.979 71.7211 275.818 71.8673C275.654 72.0121 275.475 72.0932 275.282 72.1108C275.084 72.1299 274.87 72.081 274.64 71.9641C274.332 71.8079 274.149 71.5846 274.09 71.2942C274.031 71.0039 274.11 70.6444 274.328 70.2157C274.411 70.0517 274.514 69.8886 274.636 69.7263C274.757 69.5669 274.863 69.4362 274.954 69.3343L274.939 68.659L271.603 67.2646L269.867 70.6867L270.997 71.2605L272.14 69.0079L273.438 69.52C273.368 69.6076 273.294 69.7038 273.216 69.8086C273.137 69.9135 273.045 70.0695 272.94 70.2766Z" fill="#565656"/>
    <rect x="2.17614" y="6.66167" width="237.089" height="339.089" rx="32.7061" transform="matrix(-0.452583 0.891722 0.891722 0.452583 274.406 21.1808)" stroke="white" stroke-width="9.91094"/>
    <path d="M243.297 102.304L212.248 163.479C220.709 167.773 231.048 164.395 235.342 155.935L250.841 125.398C255.135 116.938 251.757 106.598 243.297 102.304Z" fill="white"/>
    <rect width="35.6794" height="2.64292" rx="1.32146" transform="matrix(-0.452583 0.891722 0.891722 0.452583 242.563 118.35)" fill="#CECECE"/>
    <circle cx="1.32146" cy="1.32146" r="1.32146" transform="matrix(-0.452583 0.891722 0.891722 0.452583 225.219 152.522)" fill="#CECECE"/>
    </g>
    <defs>
    <filter id="filter0_di_101_151" x="-229.056" y="161.67" width="709.488" height="650.426" filterUnits="userSpaceOnUse" color-interpolation-filters="sRGB">
    <feFlood flood-opacity="0" result="BackgroundImageFix"/>
    <feColorMatrix in="SourceAlpha" type="matrix" values="0 0 0 0 0 0 0 0 0 0 0 0 0 0 0 0 0 0 127 0" result="hardAlpha"/>
    <feOffset dy="2.31038"/>
    <feGaussianBlur stdDeviation="8.95271"/>
    <feColorMatrix type="matrix" values="0 0 0 0 0 0 0 0 0 0 0 0 0 0 0 0 0 0 0.26 0"/>
    <feBlend mode="normal" in2="BackgroundImageFix" result="effect1_dropShadow_101_151"/>
    <feBlend mode="normal" in="SourceGraphic" in2="effect1_dropShadow_101_151" result="shape"/>
    <feColorMatrix in="SourceAlpha" type="matrix" values="0 0 0 0 0 0 0 0 0 0 0 0 0 0 0 0 0 0 127 0" result="hardAlpha"/>
    <feOffset dx="-3.46557" dy="-5.77595"/>
    <feGaussianBlur stdDeviation="2.02158"/>
    <feComposite in2="hardAlpha" operator="arithmetic" k2="-1" k3="1"/>
    <feColorMatrix type="matrix" values="0 0 0 0 0 0 0 0 0 0 0 0 0 0 0 0 0 0 0.08 0"/>
    <feBlend mode="normal" in2="shape" result="effect2_innerShadow_101_151"/>
    </filter>
    <filter id="filter1_d_101_151" x="-1737.68" y="-661.725" width="2185.64" height="1125.3" filterUnits="userSpaceOnUse" color-interpolation-filters="sRGB">
    <feFlood flood-opacity="0" result="BackgroundImageFix"/>
    <feColorMatrix in="SourceAlpha" type="matrix" values="0 0 0 0 0 0 0 0 0 0 0 0 0 0 0 0 0 0 127 0" result="hardAlpha"/>
    <feOffset dy="2.31038"/>
    <feGaussianBlur stdDeviation="3.46557"/>
    <feColorMatrix type="matrix" values="0 0 0 0 0 0 0 0 0 0 0 0 0 0 0 0 0 0 0.23 0"/>
    <feBlend mode="normal" in2="BackgroundImageFix" result="effect1_dropShadow_101_151"/>
    <feBlend mode="normal" in="SourceGraphic" in2="effect1_dropShadow_101_151" result="shape"/>
    </filter>
    <filter id="filter2_di_101_151" x="363.663" y="364.453" width="312.838" height="382.361" filterUnits="userSpaceOnUse" color-interpolation-filters="sRGB">
    <feFlood flood-opacity="0" result="BackgroundImageFix"/>
    <feColorMatrix in="SourceAlpha" type="matrix" values="0 0 0 0 0 0 0 0 0 0 0 0 0 0 0 0 0 0 127 0" result="hardAlpha"/>
    <feOffset dx="0.577595" dy="2.31038"/>
    <feGaussianBlur stdDeviation="6.93113"/>
    <feColorMatrix type="matrix" values="0 0 0 0 0 0 0 0 0 0 0 0 0 0 0 0 0 0 0.35 0"/>
    <feBlend mode="normal" in2="BackgroundImageFix" result="effect1_dropShadow_101_151"/>
    <feBlend mode="normal" in="SourceGraphic" in2="effect1_dropShadow_101_151" result="shape"/>
    <feColorMatrix in="SourceAlpha" type="matrix" values="0 0 0 0 0 0 0 0 0 0 0 0 0 0 0 0 0 0 127 0" result="hardAlpha"/>
    <feOffset dx="-2.31038" dy="-5.19835"/>
    <feGaussianBlur stdDeviation="2.02158"/>
    <feComposite in2="hardAlpha" operator="arithmetic" k2="-1" k3="1"/>
    <feColorMatrix type="matrix" values="0 0 0 0 0 0 0 0 0 0 0 0 0 0 0 0 0 0 0.19 0"/>
    <feBlend mode="normal" in2="shape" result="effect2_innerShadow_101_151"/>
    </filter>
    <filter id="filter3_d_101_151" x="152.269" y="7.97461" width="450.792" height="405.772" filterUnits="userSpaceOnUse" color-interpolation-filters="sRGB">
    <feFlood flood-opacity="0" result="BackgroundImageFix"/>
    <feColorMatrix in="SourceAlpha" type="matrix" values="0 0 0 0 0 0 0 0 0 0 0 0 0 0 0 0 0 0 127 0" result="hardAlpha"/>
    <feOffset dx="0.58" dy="2.3"/>
    <feGaussianBlur stdDeviation="6.9"/>
    <feComposite in2="hardAlpha" operator="out"/>
    <feColorMatrix type="matrix" values="0 0 0 0 0 0 0 0 0 0 0 0 0 0 0 0 0 0 0.25 0"/>
    <feBlend mode="normal" in2="BackgroundImageFix" result="effect1_dropShadow_101_151"/>
    <feBlend mode="normal" in="SourceGraphic" in2="effect1_dropShadow_101_151" result="shape"/>
    </filter>
    <linearGradient id="paint0_linear_101_151" x1="273.202" y1="0" x2="273.202" y2="411.825" gradientUnits="userSpaceOnUse">
    <stop stop-color="#F5F5F5"/>
    <stop offset="1" stop-color="white"/>
    </linearGradient>
    </defs>
    </svg>